<?xml version="1.0" encoding="UTF-8" standalone="no"?>
<!DOCTYPE svg PUBLIC "-//W3C//DTD SVG 1.1//EN"
 "http://www.w3.org/Graphics/SVG/1.1/DTD/svg11.dtd">
<!-- Generated by graphviz version 12.2.1 (0)
 -->
<!-- Title: snakemake_dag Pages: 1 -->
<svg width="506pt" height="266pt"
 viewBox="0.00 0.00 506.00 265.75" xmlns="http://www.w3.org/2000/svg" xmlns:xlink="http://www.w3.org/1999/xlink">
<g id="graph0" class="graph" transform="scale(1 1) rotate(0) translate(4 261.75)">
<title>snakemake_dag</title>
<polygon fill="white" stroke="none" points="-4,4 -4,-261.75 502,-261.75 502,4 -4,4"/>
<!-- 0 -->
<g id="node1" class="node">
<title>0</title>
<path fill="none" stroke="#59d856" stroke-width="2" d="M250.5,-36C250.5,-36 220.5,-36 220.5,-36 214.5,-36 208.5,-30 208.5,-24 208.5,-24 208.5,-12 208.5,-12 208.5,-6 214.5,0 220.5,0 220.5,0 250.5,0 250.5,0 256.5,0 262.5,-6 262.5,-12 262.5,-12 262.5,-24 262.5,-24 262.5,-30 256.5,-36 250.5,-36"/>
<text text-anchor="middle" x="235.5" y="-14.12" font-family="sans" font-size="10.00">all</text>
</g>
<!-- 1 -->
<g id="node2" class="node">
<title>1</title>
<path fill="none" stroke="#d85656" stroke-width="2" d="M115.38,-180C115.38,-180 29.62,-180 29.62,-180 23.62,-180 17.62,-174 17.62,-168 17.62,-168 17.62,-156 17.62,-156 17.62,-150 23.62,-144 29.62,-144 29.62,-144 115.38,-144 115.38,-144 121.38,-144 127.38,-150 127.38,-156 127.38,-156 127.38,-168 127.38,-168 127.38,-174 121.38,-180 115.38,-180"/>
<text text-anchor="middle" x="72.5" y="-158.12" font-family="sans" font-size="10.00">run_fastqc_and_fastp</text>
</g>
<!-- 1&#45;&gt;0 -->
<g id="edge1" class="edge">
<title>1&#45;&gt;0</title>
<path fill="none" stroke="grey" stroke-width="2" d="M61.38,-143.15C50.89,-123.77 38.9,-92.82 54.5,-72 71.32,-49.54 146.75,-33.4 194.76,-25.18"/>
<polygon fill="grey" stroke="grey" stroke-width="2" points="195.23,-28.65 204.52,-23.57 194.09,-21.75 195.23,-28.65"/>
</g>
<!-- 7 -->
<g id="node8" class="node">
<title>7</title>
<path fill="none" stroke="#d6d856" stroke-width="2" d="M155.75,-108C155.75,-108 75.25,-108 75.25,-108 69.25,-108 63.25,-102 63.25,-96 63.25,-96 63.25,-84 63.25,-84 63.25,-78 69.25,-72 75.25,-72 75.25,-72 155.75,-72 155.75,-72 161.75,-72 167.75,-78 167.75,-84 167.75,-84 167.75,-96 167.75,-96 167.75,-102 161.75,-108 155.75,-108"/>
<text text-anchor="middle" x="115.5" y="-86.12" font-family="sans" font-size="10.00">compute_read_stats</text>
</g>
<!-- 1&#45;&gt;7 -->
<g id="edge10" class="edge">
<title>1&#45;&gt;7</title>
<path fill="none" stroke="grey" stroke-width="2" d="M83.35,-143.34C87.75,-136.18 92.94,-127.73 97.85,-119.73"/>
<polygon fill="grey" stroke="grey" stroke-width="2" points="100.67,-121.83 102.92,-111.48 94.7,-118.17 100.67,-121.83"/>
</g>
<!-- 2 -->
<g id="node3" class="node">
<title>2</title>
<path fill="none" stroke="#56d8d8" stroke-width="2" stroke-dasharray="5,2" d="M133,-257.75C133,-257.75 12,-257.75 12,-257.75 6,-257.75 0,-251.75 0,-245.75 0,-245.75 0,-228 0,-228 0,-222 6,-216 12,-216 12,-216 133,-216 133,-216 139,-216 145,-222 145,-228 145,-228 145,-245.75 145,-245.75 145,-251.75 139,-257.75 133,-257.75"/>
<text text-anchor="middle" x="72.5" y="-244.25" font-family="sans" font-size="10.00">download_input_FASTQ_files</text>
<text text-anchor="middle" x="72.5" y="-233" font-family="sans" font-size="10.00">run_ID: ERR4808980</text>
<text text-anchor="middle" x="72.5" y="-221.75" font-family="sans" font-size="10.00">sample_ID: SAMEA7541517</text>
</g>
<!-- 2&#45;&gt;1 -->
<g id="edge7" class="edge">
<title>2&#45;&gt;1</title>
<path fill="none" stroke="grey" stroke-width="2" d="M72.5,-215.19C72.5,-208.43 72.5,-200.79 72.5,-193.47"/>
<polygon fill="grey" stroke="grey" stroke-width="2" points="76,-193.56 72.5,-183.56 69,-193.56 76,-193.56"/>
</g>
<!-- 3 -->
<g id="node4" class="node">
<title>3</title>
<path fill="none" stroke="#d85656" stroke-width="2" d="M296.38,-180C296.38,-180 210.62,-180 210.62,-180 204.62,-180 198.62,-174 198.62,-168 198.62,-168 198.62,-156 198.62,-156 198.62,-150 204.62,-144 210.62,-144 210.62,-144 296.38,-144 296.38,-144 302.38,-144 308.38,-150 308.38,-156 308.38,-156 308.38,-168 308.38,-168 308.38,-174 302.38,-180 296.38,-180"/>
<text text-anchor="middle" x="253.5" y="-158.12" font-family="sans" font-size="10.00">run_fastqc_and_fastp</text>
</g>
<!-- 3&#45;&gt;0 -->
<g id="edge2" class="edge">
<title>3&#45;&gt;0</title>
<path fill="none" stroke="grey" stroke-width="2" d="M235.79,-143.05C227.61,-133.48 218.78,-121.03 214.5,-108 208.12,-88.58 213.47,-66.18 220.37,-48.71"/>
<polygon fill="grey" stroke="grey" stroke-width="2" points="223.49,-50.31 224.3,-39.75 217.08,-47.5 223.49,-50.31"/>
</g>
<!-- 8 -->
<g id="node9" class="node">
<title>8</title>
<path fill="none" stroke="#d6d856" stroke-width="2" d="M315.75,-108C315.75,-108 235.25,-108 235.25,-108 229.25,-108 223.25,-102 223.25,-96 223.25,-96 223.25,-84 223.25,-84 223.25,-78 229.25,-72 235.25,-72 235.25,-72 315.75,-72 315.75,-72 321.75,-72 327.75,-78 327.75,-84 327.75,-84 327.75,-96 327.75,-96 327.75,-102 321.75,-108 315.75,-108"/>
<text text-anchor="middle" x="275.5" y="-86.12" font-family="sans" font-size="10.00">compute_read_stats</text>
</g>
<!-- 3&#45;&gt;8 -->
<g id="edge11" class="edge">
<title>3&#45;&gt;8</title>
<path fill="none" stroke="grey" stroke-width="2" d="M259.05,-143.34C261.17,-136.59 263.65,-128.69 266.04,-121.11"/>
<polygon fill="grey" stroke="grey" stroke-width="2" points="269.31,-122.38 268.97,-111.79 262.63,-120.28 269.31,-122.38"/>
</g>
<!-- 4 -->
<g id="node5" class="node">
<title>4</title>
<path fill="none" stroke="#56d8d8" stroke-width="2" stroke-dasharray="5,2" d="M314,-257.75C314,-257.75 193,-257.75 193,-257.75 187,-257.75 181,-251.75 181,-245.75 181,-245.75 181,-228 181,-228 181,-222 187,-216 193,-216 193,-216 314,-216 314,-216 320,-216 326,-222 326,-228 326,-228 326,-245.75 326,-245.75 326,-251.75 320,-257.75 314,-257.75"/>
<text text-anchor="middle" x="253.5" y="-244.25" font-family="sans" font-size="10.00">download_input_FASTQ_files</text>
<text text-anchor="middle" x="253.5" y="-233" font-family="sans" font-size="10.00">run_ID: ERR4808985</text>
<text text-anchor="middle" x="253.5" y="-221.75" font-family="sans" font-size="10.00">sample_ID: SAMEA7541522</text>
</g>
<!-- 4&#45;&gt;3 -->
<g id="edge8" class="edge">
<title>4&#45;&gt;3</title>
<path fill="none" stroke="grey" stroke-width="2" d="M253.5,-215.19C253.5,-208.43 253.5,-200.79 253.5,-193.47"/>
<polygon fill="grey" stroke="grey" stroke-width="2" points="257,-193.56 253.5,-183.56 250,-193.56 257,-193.56"/>
</g>
<!-- 5 -->
<g id="node6" class="node">
<title>5</title>
<path fill="none" stroke="#d85656" stroke-width="2" d="M468.38,-180C468.38,-180 382.62,-180 382.62,-180 376.62,-180 370.62,-174 370.62,-168 370.62,-168 370.62,-156 370.62,-156 370.62,-150 376.62,-144 382.62,-144 382.62,-144 468.38,-144 468.38,-144 474.38,-144 480.38,-150 480.38,-156 480.38,-156 480.38,-168 480.38,-168 480.38,-174 474.38,-180 468.38,-180"/>
<text text-anchor="middle" x="425.5" y="-158.12" font-family="sans" font-size="10.00">run_fastqc_and_fastp</text>
</g>
<!-- 5&#45;&gt;0 -->
<g id="edge3" class="edge">
<title>5&#45;&gt;0</title>
<path fill="none" stroke="grey" stroke-width="2" d="M408.33,-143.26C384.75,-119 344.38,-77.8 336.5,-72 317.57,-58.07 294.48,-45.67 275.16,-36.37"/>
<polygon fill="grey" stroke="grey" stroke-width="2" points="276.67,-33.21 266.13,-32.14 273.71,-39.55 276.67,-33.21"/>
</g>
<!-- 9 -->
<g id="node10" class="node">
<title>9</title>
<path fill="none" stroke="#d6d856" stroke-width="2" d="M475.75,-108C475.75,-108 395.25,-108 395.25,-108 389.25,-108 383.25,-102 383.25,-96 383.25,-96 383.25,-84 383.25,-84 383.25,-78 389.25,-72 395.25,-72 395.25,-72 475.75,-72 475.75,-72 481.75,-72 487.75,-78 487.75,-84 487.75,-84 487.75,-96 487.75,-96 487.75,-102 481.75,-108 475.75,-108"/>
<text text-anchor="middle" x="435.5" y="-86.12" font-family="sans" font-size="10.00">compute_read_stats</text>
</g>
<!-- 5&#45;&gt;9 -->
<g id="edge12" class="edge">
<title>5&#45;&gt;9</title>
<path fill="none" stroke="grey" stroke-width="2" d="M428.02,-143.34C428.96,-136.75 430.06,-129.08 431.12,-121.67"/>
<polygon fill="grey" stroke="grey" stroke-width="2" points="434.57,-122.29 432.51,-111.9 427.64,-121.3 434.57,-122.29"/>
</g>
<!-- 6 -->
<g id="node7" class="node">
<title>6</title>
<path fill="none" stroke="#56d8d8" stroke-width="2" stroke-dasharray="5,2" d="M486,-257.75C486,-257.75 365,-257.75 365,-257.75 359,-257.75 353,-251.75 353,-245.75 353,-245.75 353,-228 353,-228 353,-222 359,-216 365,-216 365,-216 486,-216 486,-216 492,-216 498,-222 498,-228 498,-228 498,-245.75 498,-245.75 498,-251.75 492,-257.75 486,-257.75"/>
<text text-anchor="middle" x="425.5" y="-244.25" font-family="sans" font-size="10.00">download_input_FASTQ_files</text>
<text text-anchor="middle" x="425.5" y="-233" font-family="sans" font-size="10.00">run_ID: ERR4812963</text>
<text text-anchor="middle" x="425.5" y="-221.75" font-family="sans" font-size="10.00">sample_ID: SAMEA7546468</text>
</g>
<!-- 6&#45;&gt;5 -->
<g id="edge9" class="edge">
<title>6&#45;&gt;5</title>
<path fill="none" stroke="grey" stroke-width="2" d="M425.5,-215.19C425.5,-208.43 425.5,-200.79 425.5,-193.47"/>
<polygon fill="grey" stroke="grey" stroke-width="2" points="429,-193.56 425.5,-183.56 422,-193.56 429,-193.56"/>
</g>
<!-- 7&#45;&gt;0 -->
<g id="edge4" class="edge">
<title>7&#45;&gt;0</title>
<path fill="none" stroke="grey" stroke-width="2" d="M146.09,-71.15C161.55,-62.14 180.47,-51.1 196.92,-41.51"/>
<polygon fill="grey" stroke="grey" stroke-width="2" points="198.35,-44.72 205.22,-36.66 194.82,-38.68 198.35,-44.72"/>
</g>
<!-- 8&#45;&gt;0 -->
<g id="edge5" class="edge">
<title>8&#45;&gt;0</title>
<path fill="none" stroke="grey" stroke-width="2" d="M265.41,-71.34C261.36,-64.26 256.6,-55.92 252.07,-48"/>
<polygon fill="grey" stroke="grey" stroke-width="2" points="255.23,-46.48 247.23,-39.53 249.15,-49.95 255.23,-46.48"/>
</g>
<!-- 9&#45;&gt;0 -->
<g id="edge6" class="edge">
<title>9&#45;&gt;0</title>
<path fill="none" stroke="grey" stroke-width="2" d="M384.25,-71.06C350.48,-59.24 306.89,-43.99 275.64,-33.05"/>
<polygon fill="grey" stroke="grey" stroke-width="2" points="276.93,-29.79 266.34,-29.79 274.62,-36.4 276.93,-29.79"/>
</g>
</g>
</svg>
