<?xml version="1.0" encoding="UTF-8" standalone="no"?>
<!DOCTYPE svg PUBLIC "-//W3C//DTD SVG 1.1//EN"
 "http://www.w3.org/Graphics/SVG/1.1/DTD/svg11.dtd">
<!-- Generated by graphviz version 12.2.1 (0)
 -->
<!-- Title: snakemake_dag Pages: 1 -->
<svg width="239pt" height="266pt"
 viewBox="0.00 0.00 238.50 265.75" xmlns="http://www.w3.org/2000/svg" xmlns:xlink="http://www.w3.org/1999/xlink">
<g id="graph0" class="graph" transform="scale(1 1) rotate(0) translate(4 261.75)">
<title>snakemake_dag</title>
<polygon fill="white" stroke="none" points="-4,4 -4,-261.75 234.5,-261.75 234.5,4 -4,4"/>
<!-- 0 -->
<g id="node1" class="node">
<title>0</title>
<path fill="none" stroke="#afd856" stroke-width="2" stroke-dasharray="5,2" d="M104.88,-36C104.88,-36 74.88,-36 74.88,-36 68.88,-36 62.88,-30 62.88,-24 62.88,-24 62.88,-12 62.88,-12 62.88,-6 68.88,0 74.88,0 74.88,0 104.88,0 104.88,0 110.88,0 116.88,-6 116.88,-12 116.88,-12 116.88,-24 116.88,-24 116.88,-30 110.88,-36 104.88,-36"/>
<text text-anchor="middle" x="89.88" y="-14.12" font-family="sans" font-size="10.00">all</text>
</g>
<!-- 1 -->
<g id="node2" class="node">
<title>1</title>
<path fill="none" stroke="#d85656" stroke-width="2" stroke-dasharray="5,2" d="M49.75,-108C49.75,-108 12,-108 12,-108 6,-108 0,-102 0,-96 0,-96 0,-84 0,-84 0,-78 6,-72 12,-72 12,-72 49.75,-72 49.75,-72 55.75,-72 61.75,-78 61.75,-84 61.75,-84 61.75,-96 61.75,-96 61.75,-102 55.75,-108 49.75,-108"/>
<text text-anchor="middle" x="30.88" y="-86.12" font-family="sans" font-size="10.00">run_fastqc</text>
</g>
<!-- 1&#45;&gt;0 -->
<g id="edge1" class="edge">
<title>1&#45;&gt;0</title>
<path fill="none" stroke="grey" stroke-width="2" d="M45.76,-71.34C52.07,-63.85 59.58,-54.95 66.59,-46.63"/>
<polygon fill="grey" stroke="grey" stroke-width="2" points="69.07,-49.12 72.84,-39.22 63.71,-44.61 69.07,-49.12"/>
</g>
<!-- 2 -->
<g id="node3" class="node">
<title>2</title>
<path fill="none" stroke="#56d8a9" stroke-width="2" stroke-dasharray="5,2" d="M148.38,-257.75C148.38,-257.75 27.38,-257.75 27.38,-257.75 21.38,-257.75 15.38,-251.75 15.38,-245.75 15.38,-245.75 15.38,-228 15.38,-228 15.38,-222 21.38,-216 27.38,-216 27.38,-216 148.38,-216 148.38,-216 154.38,-216 160.38,-222 160.38,-228 160.38,-228 160.38,-245.75 160.38,-245.75 160.38,-251.75 154.38,-257.75 148.38,-257.75"/>
<text text-anchor="middle" x="87.88" y="-244.25" font-family="sans" font-size="10.00">download_input_FASTQ_files</text>
<text text-anchor="middle" x="87.88" y="-233" font-family="sans" font-size="10.00">run_ID: ERR3994093</text>
<text text-anchor="middle" x="87.88" y="-221.75" font-family="sans" font-size="10.00">sample_ID: SAMEA6649913</text>
</g>
<!-- 2&#45;&gt;1 -->
<g id="edge4" class="edge">
<title>2&#45;&gt;1</title>
<path fill="none" stroke="grey" stroke-width="2" d="M71.01,-215.25C63.53,-205.16 55.22,-192.51 49.88,-180 41.9,-161.34 37.15,-138.99 34.39,-121.36"/>
<polygon fill="grey" stroke="grey" stroke-width="2" points="37.88,-121.08 33.03,-111.66 30.95,-122.05 37.88,-121.08"/>
</g>
<!-- 3 -->
<g id="node4" class="node">
<title>3</title>
<path fill="none" stroke="#d8ac56" stroke-width="2" stroke-dasharray="5,2" d="M218.5,-180C218.5,-180 71.25,-180 71.25,-180 65.25,-180 59.25,-174 59.25,-168 59.25,-168 59.25,-156 59.25,-156 59.25,-150 65.25,-144 71.25,-144 71.25,-144 218.5,-144 218.5,-144 224.5,-144 230.5,-150 230.5,-156 230.5,-156 230.5,-168 230.5,-168 230.5,-174 224.5,-180 218.5,-180"/>
<text text-anchor="middle" x="144.88" y="-158.12" font-family="sans" font-size="10.00">trim_adapters_low_qual_sequences</text>
</g>
<!-- 2&#45;&gt;3 -->
<g id="edge5" class="edge">
<title>2&#45;&gt;3</title>
<path fill="none" stroke="grey" stroke-width="2" d="M104.06,-215.19C110.01,-207.58 116.84,-198.84 123.2,-190.71"/>
<polygon fill="grey" stroke="grey" stroke-width="2" points="125.89,-192.95 129.3,-182.92 120.38,-188.64 125.89,-192.95"/>
</g>
<!-- 3&#45;&gt;0 -->
<g id="edge2" class="edge">
<title>3&#45;&gt;0</title>
<path fill="none" stroke="grey" stroke-width="2" d="M130.35,-143.38C122.91,-133.52 114.29,-120.69 108.88,-108 100.91,-89.33 96.15,-66.99 93.39,-49.36"/>
<polygon fill="grey" stroke="grey" stroke-width="2" points="96.89,-49.08 92.03,-39.66 89.95,-50.05 96.89,-49.08"/>
</g>
<!-- 4 -->
<g id="node5" class="node">
<title>4</title>
<path fill="none" stroke="#56a9d8" stroke-width="2" stroke-dasharray="5,2" d="M210.12,-108C210.12,-108 129.62,-108 129.62,-108 123.62,-108 117.62,-102 117.62,-96 117.62,-96 117.62,-84 117.62,-84 117.62,-78 123.62,-72 129.62,-72 129.62,-72 210.12,-72 210.12,-72 216.12,-72 222.12,-78 222.12,-84 222.12,-84 222.12,-96 222.12,-96 222.12,-102 216.12,-108 210.12,-108"/>
<text text-anchor="middle" x="169.88" y="-86.12" font-family="sans" font-size="10.00">compute_read_stats</text>
</g>
<!-- 3&#45;&gt;4 -->
<g id="edge6" class="edge">
<title>3&#45;&gt;4</title>
<path fill="none" stroke="grey" stroke-width="2" d="M151.18,-143.34C153.59,-136.59 156.41,-128.69 159.12,-121.11"/>
<polygon fill="grey" stroke="grey" stroke-width="2" points="162.4,-122.35 162.46,-111.75 155.8,-119.99 162.4,-122.35"/>
</g>
<!-- 4&#45;&gt;0 -->
<g id="edge3" class="edge">
<title>4&#45;&gt;0</title>
<path fill="none" stroke="grey" stroke-width="2" d="M149.69,-71.34C140.66,-63.44 129.83,-53.96 119.89,-45.26"/>
<polygon fill="grey" stroke="grey" stroke-width="2" points="122.44,-42.85 112.61,-38.9 117.83,-48.11 122.44,-42.85"/>
</g>
</g>
</svg>
