<?xml version="1.0" encoding="UTF-8" standalone="no"?>
<!DOCTYPE svg PUBLIC "-//W3C//DTD SVG 1.1//EN"
 "http://www.w3.org/Graphics/SVG/1.1/DTD/svg11.dtd">
<!-- Generated by graphviz version 12.2.1 (0)
 -->
<!-- Title: snakemake_dag Pages: 1 -->
<svg width="716pt" height="266pt"
 viewBox="0.00 0.00 715.50 265.75" xmlns="http://www.w3.org/2000/svg" xmlns:xlink="http://www.w3.org/1999/xlink">
<g id="graph0" class="graph" transform="scale(1 1) rotate(0) translate(4 261.75)">
<title>snakemake_dag</title>
<polygon fill="white" stroke="none" points="-4,4 -4,-261.75 711.5,-261.75 711.5,4 -4,4"/>
<!-- 0 -->
<g id="node1" class="node">
<title>0</title>
<path fill="none" stroke="#d85656" stroke-width="2" stroke-dasharray="5,2" d="M350.88,-36C350.88,-36 320.88,-36 320.88,-36 314.88,-36 308.88,-30 308.88,-24 308.88,-24 308.88,-12 308.88,-12 308.88,-6 314.88,0 320.88,0 320.88,0 350.88,0 350.88,0 356.88,0 362.88,-6 362.88,-12 362.88,-12 362.88,-24 362.88,-24 362.88,-30 356.88,-36 350.88,-36"/>
<text text-anchor="middle" x="335.88" y="-14.12" font-family="sans" font-size="10.00">all</text>
</g>
<!-- 1 -->
<g id="node2" class="node">
<title>1</title>
<path fill="none" stroke="#d8bc56" stroke-width="2" stroke-dasharray="5,2" d="M49.75,-180C49.75,-180 12,-180 12,-180 6,-180 0,-174 0,-168 0,-168 0,-156 0,-156 0,-150 6,-144 12,-144 12,-144 49.75,-144 49.75,-144 55.75,-144 61.75,-150 61.75,-156 61.75,-156 61.75,-168 61.75,-168 61.75,-174 55.75,-180 49.75,-180"/>
<text text-anchor="middle" x="30.88" y="-158.12" font-family="sans" font-size="10.00">run_fastqc</text>
</g>
<!-- 1&#45;&gt;0 -->
<g id="edge1" class="edge">
<title>1&#45;&gt;0</title>
<path fill="none" stroke="grey" stroke-width="2" d="M41.85,-143.35C55.48,-122.95 80.67,-89.9 110.88,-72 168.97,-37.57 247.92,-25.5 295.19,-21.28"/>
<polygon fill="grey" stroke="grey" stroke-width="2" points="295.22,-24.79 304.91,-20.5 294.67,-17.81 295.22,-24.79"/>
</g>
<!-- 2 -->
<g id="node3" class="node">
<title>2</title>
<path fill="none" stroke="#88d856" stroke-width="2" stroke-dasharray="5,2" d="M180.38,-257.75C180.38,-257.75 59.38,-257.75 59.38,-257.75 53.38,-257.75 47.38,-251.75 47.38,-245.75 47.38,-245.75 47.38,-228 47.38,-228 47.38,-222 53.38,-216 59.38,-216 59.38,-216 180.38,-216 180.38,-216 186.38,-216 192.38,-222 192.38,-228 192.38,-228 192.38,-245.75 192.38,-245.75 192.38,-251.75 186.38,-257.75 180.38,-257.75"/>
<text text-anchor="middle" x="119.88" y="-244.25" font-family="sans" font-size="10.00">download_input_FASTQ_files</text>
<text text-anchor="middle" x="119.88" y="-233" font-family="sans" font-size="10.00">run_ID: ERR4808980</text>
<text text-anchor="middle" x="119.88" y="-221.75" font-family="sans" font-size="10.00">sample_ID: SAMEA7541517</text>
</g>
<!-- 2&#45;&gt;1 -->
<g id="edge7" class="edge">
<title>2&#45;&gt;1</title>
<path fill="none" stroke="grey" stroke-width="2" d="M94.61,-215.19C84.67,-207.04 73.13,-197.6 62.64,-189.01"/>
<polygon fill="grey" stroke="grey" stroke-width="2" points="64.88,-186.32 54.92,-182.69 60.44,-191.73 64.88,-186.32"/>
</g>
<!-- 8 -->
<g id="node9" class="node">
<title>8</title>
<path fill="none" stroke="#56c1d8" stroke-width="2" stroke-dasharray="5,2" d="M239.5,-180C239.5,-180 92.25,-180 92.25,-180 86.25,-180 80.25,-174 80.25,-168 80.25,-168 80.25,-156 80.25,-156 80.25,-150 86.25,-144 92.25,-144 92.25,-144 239.5,-144 239.5,-144 245.5,-144 251.5,-150 251.5,-156 251.5,-156 251.5,-168 251.5,-168 251.5,-174 245.5,-180 239.5,-180"/>
<text text-anchor="middle" x="165.88" y="-158.12" font-family="sans" font-size="10.00">trim_adapters_low_qual_sequences</text>
</g>
<!-- 2&#45;&gt;8 -->
<g id="edge11" class="edge">
<title>2&#45;&gt;8</title>
<path fill="none" stroke="grey" stroke-width="2" d="M132.93,-215.19C137.57,-207.84 142.88,-199.43 147.86,-191.54"/>
<polygon fill="grey" stroke="grey" stroke-width="2" points="150.82,-193.42 153.19,-183.09 144.9,-189.68 150.82,-193.42"/>
</g>
<!-- 3 -->
<g id="node4" class="node">
<title>3</title>
<path fill="none" stroke="#d8bc56" stroke-width="2" stroke-dasharray="5,2" d="M301.75,-108C301.75,-108 264,-108 264,-108 258,-108 252,-102 252,-96 252,-96 252,-84 252,-84 252,-78 258,-72 264,-72 264,-72 301.75,-72 301.75,-72 307.75,-72 313.75,-78 313.75,-84 313.75,-84 313.75,-96 313.75,-96 313.75,-102 307.75,-108 301.75,-108"/>
<text text-anchor="middle" x="282.88" y="-86.12" font-family="sans" font-size="10.00">run_fastqc</text>
</g>
<!-- 3&#45;&gt;0 -->
<g id="edge2" class="edge">
<title>3&#45;&gt;0</title>
<path fill="none" stroke="grey" stroke-width="2" d="M296.25,-71.34C301.79,-64.01 308.36,-55.34 314.54,-47.18"/>
<polygon fill="grey" stroke="grey" stroke-width="2" points="317.25,-49.4 320.49,-39.32 311.67,-45.18 317.25,-49.4"/>
</g>
<!-- 4 -->
<g id="node5" class="node">
<title>4</title>
<path fill="none" stroke="#88d856" stroke-width="2" stroke-dasharray="5,2" d="M386.38,-257.75C386.38,-257.75 265.38,-257.75 265.38,-257.75 259.38,-257.75 253.38,-251.75 253.38,-245.75 253.38,-245.75 253.38,-228 253.38,-228 253.38,-222 259.38,-216 265.38,-216 265.38,-216 386.38,-216 386.38,-216 392.38,-216 398.38,-222 398.38,-228 398.38,-228 398.38,-245.75 398.38,-245.75 398.38,-251.75 392.38,-257.75 386.38,-257.75"/>
<text text-anchor="middle" x="325.88" y="-244.25" font-family="sans" font-size="10.00">download_input_FASTQ_files</text>
<text text-anchor="middle" x="325.88" y="-233" font-family="sans" font-size="10.00">run_ID: ERR4808985</text>
<text text-anchor="middle" x="325.88" y="-221.75" font-family="sans" font-size="10.00">sample_ID: SAMEA7541522</text>
</g>
<!-- 4&#45;&gt;3 -->
<g id="edge8" class="edge">
<title>4&#45;&gt;3</title>
<path fill="none" stroke="grey" stroke-width="2" d="M314.22,-215.21C308.84,-204.91 302.8,-192.09 298.88,-180 292.71,-161.03 288.73,-138.97 286.28,-121.56"/>
<polygon fill="grey" stroke="grey" stroke-width="2" points="289.76,-121.21 285.01,-111.74 282.82,-122.11 289.76,-121.21"/>
</g>
<!-- 10 -->
<g id="node11" class="node">
<title>10</title>
<path fill="none" stroke="#56c1d8" stroke-width="2" stroke-dasharray="5,2" d="M467.5,-180C467.5,-180 320.25,-180 320.25,-180 314.25,-180 308.25,-174 308.25,-168 308.25,-168 308.25,-156 308.25,-156 308.25,-150 314.25,-144 320.25,-144 320.25,-144 467.5,-144 467.5,-144 473.5,-144 479.5,-150 479.5,-156 479.5,-156 479.5,-168 479.5,-168 479.5,-174 473.5,-180 467.5,-180"/>
<text text-anchor="middle" x="393.88" y="-158.12" font-family="sans" font-size="10.00">trim_adapters_low_qual_sequences</text>
</g>
<!-- 4&#45;&gt;10 -->
<g id="edge13" class="edge">
<title>4&#45;&gt;10</title>
<path fill="none" stroke="grey" stroke-width="2" d="M345.18,-215.19C352.52,-207.32 360.99,-198.25 368.78,-189.89"/>
<polygon fill="grey" stroke="grey" stroke-width="2" points="371.19,-192.44 375.45,-182.74 366.07,-187.67 371.19,-192.44"/>
</g>
<!-- 5 -->
<g id="node6" class="node">
<title>5</title>
<path fill="none" stroke="#d8bc56" stroke-width="2" stroke-dasharray="5,2" d="M519.75,-108C519.75,-108 482,-108 482,-108 476,-108 470,-102 470,-96 470,-96 470,-84 470,-84 470,-78 476,-72 482,-72 482,-72 519.75,-72 519.75,-72 525.75,-72 531.75,-78 531.75,-84 531.75,-84 531.75,-96 531.75,-96 531.75,-102 525.75,-108 519.75,-108"/>
<text text-anchor="middle" x="500.88" y="-86.12" font-family="sans" font-size="10.00">run_fastqc</text>
</g>
<!-- 5&#45;&gt;0 -->
<g id="edge3" class="edge">
<title>5&#45;&gt;0</title>
<path fill="none" stroke="grey" stroke-width="2" d="M469.06,-75.5C442.35,-64.17 404.06,-47.93 375.39,-35.76"/>
<polygon fill="grey" stroke="grey" stroke-width="2" points="377.11,-32.69 366.54,-32.01 374.37,-39.13 377.11,-32.69"/>
</g>
<!-- 6 -->
<g id="node7" class="node">
<title>6</title>
<path fill="none" stroke="#88d856" stroke-width="2" stroke-dasharray="5,2" d="M625.38,-257.75C625.38,-257.75 504.38,-257.75 504.38,-257.75 498.38,-257.75 492.38,-251.75 492.38,-245.75 492.38,-245.75 492.38,-228 492.38,-228 492.38,-222 498.38,-216 504.38,-216 504.38,-216 625.38,-216 625.38,-216 631.38,-216 637.38,-222 637.38,-228 637.38,-228 637.38,-245.75 637.38,-245.75 637.38,-251.75 631.38,-257.75 625.38,-257.75"/>
<text text-anchor="middle" x="564.88" y="-244.25" font-family="sans" font-size="10.00">download_input_FASTQ_files</text>
<text text-anchor="middle" x="564.88" y="-233" font-family="sans" font-size="10.00">run_ID: ERR4812963</text>
<text text-anchor="middle" x="564.88" y="-221.75" font-family="sans" font-size="10.00">sample_ID: SAMEA7546468</text>
</g>
<!-- 6&#45;&gt;5 -->
<g id="edge9" class="edge">
<title>6&#45;&gt;5</title>
<path fill="none" stroke="grey" stroke-width="2" d="M548.42,-215.06C541.03,-204.93 532.68,-192.31 526.88,-180 518.11,-161.41 511.62,-139.23 507.32,-121.66"/>
<polygon fill="grey" stroke="grey" stroke-width="2" points="510.73,-120.89 505.07,-111.94 503.91,-122.47 510.73,-120.89"/>
</g>
<!-- 12 -->
<g id="node13" class="node">
<title>12</title>
<path fill="none" stroke="#56c1d8" stroke-width="2" stroke-dasharray="5,2" d="M695.5,-180C695.5,-180 548.25,-180 548.25,-180 542.25,-180 536.25,-174 536.25,-168 536.25,-168 536.25,-156 536.25,-156 536.25,-150 542.25,-144 548.25,-144 548.25,-144 695.5,-144 695.5,-144 701.5,-144 707.5,-150 707.5,-156 707.5,-156 707.5,-168 707.5,-168 707.5,-174 701.5,-180 695.5,-180"/>
<text text-anchor="middle" x="621.88" y="-158.12" font-family="sans" font-size="10.00">trim_adapters_low_qual_sequences</text>
</g>
<!-- 6&#45;&gt;12 -->
<g id="edge15" class="edge">
<title>6&#45;&gt;12</title>
<path fill="none" stroke="grey" stroke-width="2" d="M581.06,-215.19C587.01,-207.58 593.84,-198.84 600.2,-190.71"/>
<polygon fill="grey" stroke="grey" stroke-width="2" points="602.89,-192.95 606.3,-182.92 597.38,-188.64 602.89,-192.95"/>
</g>
<!-- 7 -->
<g id="node8" class="node">
<title>7</title>
<path fill="none" stroke="#56d88a" stroke-width="2" stroke-dasharray="5,2" d="M212.12,-108C212.12,-108 131.62,-108 131.62,-108 125.62,-108 119.62,-102 119.62,-96 119.62,-96 119.62,-84 119.62,-84 119.62,-78 125.62,-72 131.62,-72 131.62,-72 212.12,-72 212.12,-72 218.12,-72 224.12,-78 224.12,-84 224.12,-84 224.12,-96 224.12,-96 224.12,-102 218.12,-108 212.12,-108"/>
<text text-anchor="middle" x="171.88" y="-86.12" font-family="sans" font-size="10.00">compute_read_stats</text>
</g>
<!-- 7&#45;&gt;0 -->
<g id="edge4" class="edge">
<title>7&#45;&gt;0</title>
<path fill="none" stroke="grey" stroke-width="2" d="M213.68,-71.15C239.01,-60.34 271.14,-46.63 296.09,-35.98"/>
<polygon fill="grey" stroke="grey" stroke-width="2" points="297.45,-39.21 305.28,-32.06 294.71,-32.77 297.45,-39.21"/>
</g>
<!-- 8&#45;&gt;7 -->
<g id="edge10" class="edge">
<title>8&#45;&gt;7</title>
<path fill="none" stroke="grey" stroke-width="2" d="M167.39,-143.34C167.95,-136.75 168.61,-129.08 169.25,-121.67"/>
<polygon fill="grey" stroke="grey" stroke-width="2" points="172.72,-122.18 170.08,-111.92 165.74,-121.58 172.72,-122.18"/>
</g>
<!-- 9 -->
<g id="node10" class="node">
<title>9</title>
<path fill="none" stroke="#56d88a" stroke-width="2" stroke-dasharray="5,2" d="M430.12,-108C430.12,-108 349.62,-108 349.62,-108 343.62,-108 337.62,-102 337.62,-96 337.62,-96 337.62,-84 337.62,-84 337.62,-78 343.62,-72 349.62,-72 349.62,-72 430.12,-72 430.12,-72 436.12,-72 442.12,-78 442.12,-84 442.12,-84 442.12,-96 442.12,-96 442.12,-102 436.12,-108 430.12,-108"/>
<text text-anchor="middle" x="389.88" y="-86.12" font-family="sans" font-size="10.00">compute_read_stats</text>
</g>
<!-- 9&#45;&gt;0 -->
<g id="edge5" class="edge">
<title>9&#45;&gt;0</title>
<path fill="none" stroke="grey" stroke-width="2" d="M376.25,-71.34C370.6,-64.01 363.91,-55.34 357.61,-47.18"/>
<polygon fill="grey" stroke="grey" stroke-width="2" points="360.41,-45.08 351.53,-39.3 354.87,-49.35 360.41,-45.08"/>
</g>
<!-- 10&#45;&gt;9 -->
<g id="edge12" class="edge">
<title>10&#45;&gt;9</title>
<path fill="none" stroke="grey" stroke-width="2" d="M392.87,-143.34C392.49,-136.75 392.05,-129.08 391.63,-121.67"/>
<polygon fill="grey" stroke="grey" stroke-width="2" points="395.14,-121.71 391.07,-111.92 388.15,-122.11 395.14,-121.71"/>
</g>
<!-- 11 -->
<g id="node12" class="node">
<title>11</title>
<path fill="none" stroke="#56d88a" stroke-width="2" stroke-dasharray="5,2" d="M653.12,-108C653.12,-108 572.62,-108 572.62,-108 566.62,-108 560.62,-102 560.62,-96 560.62,-96 560.62,-84 560.62,-84 560.62,-78 566.62,-72 572.62,-72 572.62,-72 653.12,-72 653.12,-72 659.12,-72 665.12,-78 665.12,-84 665.12,-84 665.12,-96 665.12,-96 665.12,-102 659.12,-108 653.12,-108"/>
<text text-anchor="middle" x="612.88" y="-86.12" font-family="sans" font-size="10.00">compute_read_stats</text>
</g>
<!-- 11&#45;&gt;0 -->
<g id="edge6" class="edge">
<title>11&#45;&gt;0</title>
<path fill="none" stroke="grey" stroke-width="2" d="M559.79,-75.59C506.26,-62.06 424.8,-41.47 376.3,-29.22"/>
<polygon fill="grey" stroke="grey" stroke-width="2" points="377.32,-25.86 366.77,-26.81 375.61,-32.65 377.32,-25.86"/>
</g>
<!-- 12&#45;&gt;11 -->
<g id="edge14" class="edge">
<title>12&#45;&gt;11</title>
<path fill="none" stroke="grey" stroke-width="2" d="M619.6,-143.34C618.76,-136.75 617.77,-129.08 616.82,-121.67"/>
<polygon fill="grey" stroke="grey" stroke-width="2" points="620.31,-121.38 615.56,-111.9 613.37,-122.27 620.31,-121.38"/>
</g>
</g>
</svg>
