<?xml version="1.0" encoding="UTF-8" standalone="no"?>
<!DOCTYPE svg PUBLIC "-//W3C//DTD SVG 1.1//EN"
 "http://www.w3.org/Graphics/SVG/1.1/DTD/svg11.dtd">
<!-- Generated by graphviz version 12.2.1 (0)
 -->
<!-- Title: snakemake_dag Pages: 1 -->
<svg width="1125pt" height="260pt"
 viewBox="0.00 0.00 1125.38 260.00" xmlns="http://www.w3.org/2000/svg" xmlns:xlink="http://www.w3.org/1999/xlink">
<g id="graph0" class="graph" transform="scale(1 1) rotate(0) translate(4 256)">
<title>snakemake_dag</title>
<polygon fill="white" stroke="none" points="-4,4 -4,-256 1121.38,-256 1121.38,4 -4,4"/>
<!-- 0 -->
<g id="node1" class="node">
<title>0</title>
<path fill="none" stroke="#c6d856" stroke-width="2" stroke-dasharray="5,2" d="M533.88,-36C533.88,-36 503.88,-36 503.88,-36 497.88,-36 491.88,-30 491.88,-24 491.88,-24 491.88,-12 491.88,-12 491.88,-6 497.88,0 503.88,0 503.88,0 533.88,0 533.88,0 539.88,0 545.88,-6 545.88,-12 545.88,-12 545.88,-24 545.88,-24 545.88,-30 539.88,-36 533.88,-36"/>
<text text-anchor="middle" x="518.88" y="-14.12" font-family="sans" font-size="10.00">all</text>
</g>
<!-- 1 -->
<g id="node2" class="node">
<title>1</title>
<path fill="none" stroke="#56a2d8" stroke-width="2" stroke-dasharray="5,2" d="M49.75,-108C49.75,-108 12,-108 12,-108 6,-108 0,-102 0,-96 0,-96 0,-84 0,-84 0,-78 6,-72 12,-72 12,-72 49.75,-72 49.75,-72 55.75,-72 61.75,-78 61.75,-84 61.75,-84 61.75,-96 61.75,-96 61.75,-102 55.75,-108 49.75,-108"/>
<text text-anchor="middle" x="30.88" y="-86.12" font-family="sans" font-size="10.00">run_fastqc</text>
</g>
<!-- 1&#45;&gt;0 -->
<g id="edge1" class="edge">
<title>1&#45;&gt;0</title>
<path fill="none" stroke="grey" stroke-width="2" d="M62.46,-74.62C65.27,-73.63 68.1,-72.74 70.88,-72 217.56,-33.01 398.88,-22.68 478.35,-19.96"/>
<polygon fill="grey" stroke="grey" stroke-width="2" points="478.18,-23.47 488.07,-19.66 477.96,-16.47 478.18,-23.47"/>
</g>
<!-- 2 -->
<g id="node3" class="node">
<title>2</title>
<path fill="none" stroke="#56d8c9" stroke-width="2" stroke-dasharray="5,2" d="M149.38,-252C149.38,-252 28.38,-252 28.38,-252 22.38,-252 16.38,-246 16.38,-240 16.38,-240 16.38,-228 16.38,-228 16.38,-222 22.38,-216 28.38,-216 28.38,-216 149.38,-216 149.38,-216 155.38,-216 161.38,-222 161.38,-228 161.38,-228 161.38,-240 161.38,-240 161.38,-246 155.38,-252 149.38,-252"/>
<text text-anchor="middle" x="88.88" y="-235.75" font-family="sans" font-size="10.00">download_input_FASTQ_files</text>
<text text-anchor="middle" x="88.88" y="-224.5" font-family="sans" font-size="10.00">run_ID: ERR4808980</text>
</g>
<!-- 2&#45;&gt;1 -->
<g id="edge10" class="edge">
<title>2&#45;&gt;1</title>
<path fill="none" stroke="grey" stroke-width="2" d="M79.92,-215.02C74.98,-204.84 68.84,-191.82 63.88,-180 55.73,-160.63 47.52,-138.48 41.32,-121.12"/>
<polygon fill="grey" stroke="grey" stroke-width="2" points="44.64,-120.02 38.01,-111.76 38.04,-122.35 44.64,-120.02"/>
</g>
<!-- 8 -->
<g id="node9" class="node">
<title>8</title>
<path fill="none" stroke="#56d87b" stroke-width="2" stroke-dasharray="5,2" d="M178.88,-180C178.88,-180 84.88,-180 84.88,-180 78.88,-180 72.88,-174 72.88,-168 72.88,-168 72.88,-156 72.88,-156 72.88,-150 78.88,-144 84.88,-144 84.88,-144 178.88,-144 178.88,-144 184.88,-144 190.88,-150 190.88,-156 190.88,-156 190.88,-168 190.88,-168 190.88,-174 184.88,-180 178.88,-180"/>
<text text-anchor="middle" x="131.88" y="-158.12" font-family="sans" font-size="10.00">fastp_adapter_trimming</text>
</g>
<!-- 2&#45;&gt;8 -->
<g id="edge14" class="edge">
<title>2&#45;&gt;8</title>
<path fill="none" stroke="grey" stroke-width="2" d="M99.73,-215.34C104.12,-208.18 109.31,-199.73 114.23,-191.73"/>
<polygon fill="grey" stroke="grey" stroke-width="2" points="117.04,-193.83 119.29,-183.48 111.08,-190.17 117.04,-193.83"/>
</g>
<!-- 3 -->
<g id="node4" class="node">
<title>3</title>
<path fill="none" stroke="#56a2d8" stroke-width="2" stroke-dasharray="5,2" d="M436.75,-108C436.75,-108 399,-108 399,-108 393,-108 387,-102 387,-96 387,-96 387,-84 387,-84 387,-78 393,-72 399,-72 399,-72 436.75,-72 436.75,-72 442.75,-72 448.75,-78 448.75,-84 448.75,-84 448.75,-96 448.75,-96 448.75,-102 442.75,-108 436.75,-108"/>
<text text-anchor="middle" x="417.88" y="-86.12" font-family="sans" font-size="10.00">run_fastqc</text>
</g>
<!-- 3&#45;&gt;0 -->
<g id="edge2" class="edge">
<title>3&#45;&gt;0</title>
<path fill="none" stroke="grey" stroke-width="2" d="M443.62,-71.15C455.49,-62.93 469.79,-53.02 482.72,-44.06"/>
<polygon fill="grey" stroke="grey" stroke-width="2" points="484.46,-47.11 490.69,-38.54 480.47,-41.36 484.46,-47.11"/>
</g>
<!-- 4 -->
<g id="node5" class="node">
<title>4</title>
<path fill="none" stroke="#56d8c9" stroke-width="2" stroke-dasharray="5,2" d="M527.38,-252C527.38,-252 406.38,-252 406.38,-252 400.38,-252 394.38,-246 394.38,-240 394.38,-240 394.38,-228 394.38,-228 394.38,-222 400.38,-216 406.38,-216 406.38,-216 527.38,-216 527.38,-216 533.38,-216 539.38,-222 539.38,-228 539.38,-228 539.38,-240 539.38,-240 539.38,-246 533.38,-252 527.38,-252"/>
<text text-anchor="middle" x="466.88" y="-235.75" font-family="sans" font-size="10.00">download_input_FASTQ_files</text>
<text text-anchor="middle" x="466.88" y="-224.5" font-family="sans" font-size="10.00">run_ID: ERR4808985</text>
</g>
<!-- 4&#45;&gt;3 -->
<g id="edge11" class="edge">
<title>4&#45;&gt;3</title>
<path fill="none" stroke="grey" stroke-width="2" d="M460.46,-215.36C456.73,-205.07 451.98,-191.82 447.88,-180 441.05,-160.36 433.58,-138.21 427.8,-120.92"/>
<polygon fill="grey" stroke="grey" stroke-width="2" points="431.19,-120.02 424.71,-111.64 424.55,-122.23 431.19,-120.02"/>
</g>
<!-- 10 -->
<g id="node11" class="node">
<title>10</title>
<path fill="none" stroke="#56d87b" stroke-width="2" stroke-dasharray="5,2" d="M562.88,-180C562.88,-180 468.88,-180 468.88,-180 462.88,-180 456.88,-174 456.88,-168 456.88,-168 456.88,-156 456.88,-156 456.88,-150 462.88,-144 468.88,-144 468.88,-144 562.88,-144 562.88,-144 568.88,-144 574.88,-150 574.88,-156 574.88,-156 574.88,-168 574.88,-168 574.88,-174 568.88,-180 562.88,-180"/>
<text text-anchor="middle" x="515.88" y="-158.12" font-family="sans" font-size="10.00">fastp_adapter_trimming</text>
</g>
<!-- 4&#45;&gt;10 -->
<g id="edge16" class="edge">
<title>4&#45;&gt;10</title>
<path fill="none" stroke="grey" stroke-width="2" d="M479.24,-215.34C484.31,-208.1 490.3,-199.53 495.96,-191.45"/>
<polygon fill="grey" stroke="grey" stroke-width="2" points="498.74,-193.58 501.61,-183.38 493.01,-189.57 498.74,-193.58"/>
</g>
<!-- 5 -->
<g id="node6" class="node">
<title>5</title>
<path fill="none" stroke="#56a2d8" stroke-width="2" stroke-dasharray="5,2" d="M805.75,-180C805.75,-180 768,-180 768,-180 762,-180 756,-174 756,-168 756,-168 756,-156 756,-156 756,-150 762,-144 768,-144 768,-144 805.75,-144 805.75,-144 811.75,-144 817.75,-150 817.75,-156 817.75,-156 817.75,-168 817.75,-168 817.75,-174 811.75,-180 805.75,-180"/>
<text text-anchor="middle" x="786.88" y="-158.12" font-family="sans" font-size="10.00">run_fastqc</text>
</g>
<!-- 5&#45;&gt;0 -->
<g id="edge3" class="edge">
<title>5&#45;&gt;0</title>
<path fill="none" stroke="grey" stroke-width="2" d="M787.67,-143.28C787.54,-123.13 784.07,-90.62 764.88,-72 736.03,-44.01 621.57,-28.88 559.46,-22.58"/>
<polygon fill="grey" stroke="grey" stroke-width="2" points="560,-19.11 549.7,-21.63 559.32,-26.08 560,-19.11"/>
</g>
<!-- 6 -->
<g id="node7" class="node">
<title>6</title>
<path fill="none" stroke="#56d8c9" stroke-width="2" stroke-dasharray="5,2" d="M901.38,-252C901.38,-252 780.38,-252 780.38,-252 774.38,-252 768.38,-246 768.38,-240 768.38,-240 768.38,-228 768.38,-228 768.38,-222 774.38,-216 780.38,-216 780.38,-216 901.38,-216 901.38,-216 907.38,-216 913.38,-222 913.38,-228 913.38,-228 913.38,-240 913.38,-240 913.38,-246 907.38,-252 901.38,-252"/>
<text text-anchor="middle" x="840.88" y="-235.75" font-family="sans" font-size="10.00">download_input_FASTQ_files</text>
<text text-anchor="middle" x="840.88" y="-224.5" font-family="sans" font-size="10.00">run_ID: ERR4812963</text>
</g>
<!-- 6&#45;&gt;5 -->
<g id="edge12" class="edge">
<title>6&#45;&gt;5</title>
<path fill="none" stroke="grey" stroke-width="2" d="M827.25,-215.34C821.6,-208.01 814.91,-199.34 808.61,-191.18"/>
<polygon fill="grey" stroke="grey" stroke-width="2" points="811.41,-189.08 802.53,-183.3 805.87,-193.35 811.41,-189.08"/>
</g>
<!-- 12 -->
<g id="node13" class="node">
<title>12</title>
<path fill="none" stroke="#56d87b" stroke-width="2" stroke-dasharray="5,2" d="M941.88,-180C941.88,-180 847.88,-180 847.88,-180 841.88,-180 835.88,-174 835.88,-168 835.88,-168 835.88,-156 835.88,-156 835.88,-150 841.88,-144 847.88,-144 847.88,-144 941.88,-144 941.88,-144 947.88,-144 953.88,-150 953.88,-156 953.88,-156 953.88,-168 953.88,-168 953.88,-174 947.88,-180 941.88,-180"/>
<text text-anchor="middle" x="894.88" y="-158.12" font-family="sans" font-size="10.00">fastp_adapter_trimming</text>
</g>
<!-- 6&#45;&gt;12 -->
<g id="edge18" class="edge">
<title>6&#45;&gt;12</title>
<path fill="none" stroke="grey" stroke-width="2" d="M854.5,-215.34C860.15,-208.01 866.84,-199.34 873.14,-191.18"/>
<polygon fill="grey" stroke="grey" stroke-width="2" points="875.88,-193.35 879.22,-183.3 870.34,-189.08 875.88,-193.35"/>
</g>
<!-- 7 -->
<g id="node8" class="node">
<title>7</title>
<path fill="none" stroke="#d8a456" stroke-width="2" stroke-dasharray="5,2" d="M172.12,-108C172.12,-108 91.62,-108 91.62,-108 85.62,-108 79.62,-102 79.62,-96 79.62,-96 79.62,-84 79.62,-84 79.62,-78 85.62,-72 91.62,-72 91.62,-72 172.12,-72 172.12,-72 178.12,-72 184.12,-78 184.12,-84 184.12,-84 184.12,-96 184.12,-96 184.12,-102 178.12,-108 172.12,-108"/>
<text text-anchor="middle" x="131.88" y="-86.12" font-family="sans" font-size="10.00">compute_read_stats</text>
</g>
<!-- 7&#45;&gt;0 -->
<g id="edge4" class="edge">
<title>7&#45;&gt;0</title>
<path fill="none" stroke="grey" stroke-width="2" d="M184.88,-74.07C187.92,-73.34 190.93,-72.64 193.88,-72 295.61,-49.82 417.09,-32.37 478.73,-24.15"/>
<polygon fill="grey" stroke="grey" stroke-width="2" points="478.84,-27.67 488.3,-22.89 477.92,-20.73 478.84,-27.67"/>
</g>
<!-- 8&#45;&gt;7 -->
<g id="edge13" class="edge">
<title>8&#45;&gt;7</title>
<path fill="none" stroke="grey" stroke-width="2" d="M131.88,-143.34C131.88,-136.75 131.88,-129.08 131.88,-121.67"/>
<polygon fill="grey" stroke="grey" stroke-width="2" points="135.38,-121.93 131.88,-111.93 128.38,-121.93 135.38,-121.93"/>
</g>
<!-- 13 -->
<g id="node14" class="node">
<title>13</title>
<path fill="none" stroke="#78d856" stroke-width="2" stroke-dasharray="5,2" d="M357.25,-108C357.25,-108 214.5,-108 214.5,-108 208.5,-108 202.5,-102 202.5,-96 202.5,-96 202.5,-84 202.5,-84 202.5,-78 208.5,-72 214.5,-72 214.5,-72 357.25,-72 357.25,-72 363.25,-72 369.25,-78 369.25,-84 369.25,-84 369.25,-96 369.25,-96 369.25,-102 363.25,-108 357.25,-108"/>
<text text-anchor="middle" x="285.88" y="-86.12" font-family="sans" font-size="10.00">extract_unclassified_kraken_reads</text>
</g>
<!-- 8&#45;&gt;13 -->
<g id="edge19" class="edge">
<title>8&#45;&gt;13</title>
<path fill="none" stroke="grey" stroke-width="2" d="M171.13,-143.15C190.43,-134.38 213.92,-123.71 234.61,-114.3"/>
<polygon fill="grey" stroke="grey" stroke-width="2" points="236.01,-117.51 243.66,-110.19 233.11,-111.14 236.01,-117.51"/>
</g>
<!-- 9 -->
<g id="node10" class="node">
<title>9</title>
<path fill="none" stroke="#d8a456" stroke-width="2" stroke-dasharray="5,2" d="M559.12,-108C559.12,-108 478.62,-108 478.62,-108 472.62,-108 466.62,-102 466.62,-96 466.62,-96 466.62,-84 466.62,-84 466.62,-78 472.62,-72 478.62,-72 478.62,-72 559.12,-72 559.12,-72 565.12,-72 571.12,-78 571.12,-84 571.12,-84 571.12,-96 571.12,-96 571.12,-102 565.12,-108 559.12,-108"/>
<text text-anchor="middle" x="518.88" y="-86.12" font-family="sans" font-size="10.00">compute_read_stats</text>
</g>
<!-- 9&#45;&gt;0 -->
<g id="edge5" class="edge">
<title>9&#45;&gt;0</title>
<path fill="none" stroke="grey" stroke-width="2" d="M518.88,-71.34C518.88,-64.75 518.88,-57.08 518.88,-49.67"/>
<polygon fill="grey" stroke="grey" stroke-width="2" points="522.38,-49.93 518.88,-39.93 515.38,-49.93 522.38,-49.93"/>
</g>
<!-- 10&#45;&gt;9 -->
<g id="edge15" class="edge">
<title>10&#45;&gt;9</title>
<path fill="none" stroke="grey" stroke-width="2" d="M516.63,-143.34C516.91,-136.75 517.24,-129.08 517.56,-121.67"/>
<polygon fill="grey" stroke="grey" stroke-width="2" points="521.05,-122.07 517.98,-111.93 514.05,-121.77 521.05,-122.07"/>
</g>
<!-- 15 -->
<g id="node16" class="node">
<title>15</title>
<path fill="none" stroke="#78d856" stroke-width="2" stroke-dasharray="5,2" d="M744.25,-108C744.25,-108 601.5,-108 601.5,-108 595.5,-108 589.5,-102 589.5,-96 589.5,-96 589.5,-84 589.5,-84 589.5,-78 595.5,-72 601.5,-72 601.5,-72 744.25,-72 744.25,-72 750.25,-72 756.25,-78 756.25,-84 756.25,-84 756.25,-96 756.25,-96 756.25,-102 750.25,-108 744.25,-108"/>
<text text-anchor="middle" x="672.88" y="-86.12" font-family="sans" font-size="10.00">extract_unclassified_kraken_reads</text>
</g>
<!-- 10&#45;&gt;15 -->
<g id="edge21" class="edge">
<title>10&#45;&gt;15</title>
<path fill="none" stroke="grey" stroke-width="2" d="M555.9,-143.15C575.66,-134.34 599.74,-123.61 620.91,-114.17"/>
<polygon fill="grey" stroke="grey" stroke-width="2" points="622.18,-117.44 629.89,-110.17 619.33,-111.04 622.18,-117.44"/>
</g>
<!-- 11 -->
<g id="node12" class="node">
<title>11</title>
<path fill="none" stroke="#d8a456" stroke-width="2" stroke-dasharray="5,2" d="M904.12,-108C904.12,-108 823.62,-108 823.62,-108 817.62,-108 811.62,-102 811.62,-96 811.62,-96 811.62,-84 811.62,-84 811.62,-78 817.62,-72 823.62,-72 823.62,-72 904.12,-72 904.12,-72 910.12,-72 916.12,-78 916.12,-84 916.12,-84 916.12,-96 916.12,-96 916.12,-102 910.12,-108 904.12,-108"/>
<text text-anchor="middle" x="863.88" y="-86.12" font-family="sans" font-size="10.00">compute_read_stats</text>
</g>
<!-- 11&#45;&gt;0 -->
<g id="edge6" class="edge">
<title>11&#45;&gt;0</title>
<path fill="none" stroke="grey" stroke-width="2" d="M810.63,-74.97C806.33,-73.93 802.03,-72.93 797.88,-72 713.42,-53.12 613.61,-35.21 559.21,-25.82"/>
<polygon fill="grey" stroke="grey" stroke-width="2" points="560.15,-22.43 549.7,-24.19 558.96,-29.33 560.15,-22.43"/>
</g>
<!-- 12&#45;&gt;11 -->
<g id="edge17" class="edge">
<title>12&#45;&gt;11</title>
<path fill="none" stroke="grey" stroke-width="2" d="M887.05,-143.34C883.99,-136.43 880.4,-128.31 876.96,-120.56"/>
<polygon fill="grey" stroke="grey" stroke-width="2" points="880.28,-119.4 873.03,-111.67 873.88,-122.23 880.28,-119.4"/>
</g>
<!-- 17 -->
<g id="node18" class="node">
<title>17</title>
<path fill="none" stroke="#78d856" stroke-width="2" stroke-dasharray="5,2" d="M1089.25,-108C1089.25,-108 946.5,-108 946.5,-108 940.5,-108 934.5,-102 934.5,-96 934.5,-96 934.5,-84 934.5,-84 934.5,-78 940.5,-72 946.5,-72 946.5,-72 1089.25,-72 1089.25,-72 1095.25,-72 1101.25,-78 1101.25,-84 1101.25,-84 1101.25,-96 1101.25,-96 1101.25,-102 1095.25,-108 1089.25,-108"/>
<text text-anchor="middle" x="1017.88" y="-86.12" font-family="sans" font-size="10.00">extract_unclassified_kraken_reads</text>
</g>
<!-- 12&#45;&gt;17 -->
<g id="edge23" class="edge">
<title>12&#45;&gt;17</title>
<path fill="none" stroke="grey" stroke-width="2" d="M926.23,-143.15C941.12,-134.68 959.15,-124.42 975.26,-115.25"/>
<polygon fill="grey" stroke="grey" stroke-width="2" points="976.99,-118.3 983.95,-110.31 973.52,-112.21 976.99,-118.3"/>
</g>
<!-- 13&#45;&gt;0 -->
<g id="edge7" class="edge">
<title>13&#45;&gt;0</title>
<path fill="none" stroke="grey" stroke-width="2" d="M345.58,-71.06C387.43,-58.49 442.23,-42.03 478.9,-31.01"/>
<polygon fill="grey" stroke="grey" stroke-width="2" points="479.59,-34.46 488.16,-28.23 477.58,-27.75 479.59,-34.46"/>
</g>
<!-- 14 -->
<g id="node15" class="node">
<title>14</title>
<path fill="none" stroke="#d85656" stroke-width="2" stroke-dasharray="5,2" d="M346.38,-180C346.38,-180 225.38,-180 225.38,-180 219.38,-180 213.38,-174 213.38,-168 213.38,-168 213.38,-156 213.38,-156 213.38,-150 219.38,-144 225.38,-144 225.38,-144 346.38,-144 346.38,-144 352.38,-144 358.38,-150 358.38,-156 358.38,-156 358.38,-168 358.38,-168 358.38,-174 352.38,-180 346.38,-180"/>
<text text-anchor="middle" x="285.88" y="-163.75" font-family="sans" font-size="10.00">get_unclassified_read_names</text>
<text text-anchor="middle" x="285.88" y="-152.5" font-family="sans" font-size="10.00">run_ID: ERR4808980</text>
</g>
<!-- 14&#45;&gt;13 -->
<g id="edge20" class="edge">
<title>14&#45;&gt;13</title>
<path fill="none" stroke="grey" stroke-width="2" d="M285.88,-143.34C285.88,-136.75 285.88,-129.08 285.88,-121.67"/>
<polygon fill="grey" stroke="grey" stroke-width="2" points="289.38,-121.93 285.88,-111.93 282.38,-121.93 289.38,-121.93"/>
</g>
<!-- 15&#45;&gt;0 -->
<g id="edge8" class="edge">
<title>15&#45;&gt;0</title>
<path fill="none" stroke="grey" stroke-width="2" d="M633.62,-71.15C610.5,-60.65 581.36,-47.4 558.23,-36.89"/>
<polygon fill="grey" stroke="grey" stroke-width="2" points="559.72,-33.72 549.16,-32.77 556.82,-40.09 559.72,-33.72"/>
</g>
<!-- 16 -->
<g id="node17" class="node">
<title>16</title>
<path fill="none" stroke="#d85656" stroke-width="2" stroke-dasharray="5,2" d="M726.38,-180C726.38,-180 605.38,-180 605.38,-180 599.38,-180 593.38,-174 593.38,-168 593.38,-168 593.38,-156 593.38,-156 593.38,-150 599.38,-144 605.38,-144 605.38,-144 726.38,-144 726.38,-144 732.38,-144 738.38,-150 738.38,-156 738.38,-156 738.38,-168 738.38,-168 738.38,-174 732.38,-180 726.38,-180"/>
<text text-anchor="middle" x="665.88" y="-163.75" font-family="sans" font-size="10.00">get_unclassified_read_names</text>
<text text-anchor="middle" x="665.88" y="-152.5" font-family="sans" font-size="10.00">run_ID: ERR4808985</text>
</g>
<!-- 16&#45;&gt;15 -->
<g id="edge22" class="edge">
<title>16&#45;&gt;15</title>
<path fill="none" stroke="grey" stroke-width="2" d="M667.64,-143.34C668.3,-136.75 669.07,-129.08 669.81,-121.67"/>
<polygon fill="grey" stroke="grey" stroke-width="2" points="673.27,-122.21 670.78,-111.91 666.31,-121.52 673.27,-122.21"/>
</g>
<!-- 17&#45;&gt;0 -->
<g id="edge9" class="edge">
<title>17&#45;&gt;0</title>
<path fill="none" stroke="grey" stroke-width="2" d="M933.76,-73.43C930.76,-72.93 927.79,-72.46 924.88,-72 791.33,-51.09 632.16,-32 559.12,-23.56"/>
<polygon fill="grey" stroke="grey" stroke-width="2" points="559.85,-20.13 549.52,-22.46 559.05,-27.08 559.85,-20.13"/>
</g>
<!-- 18 -->
<g id="node19" class="node">
<title>18</title>
<path fill="none" stroke="#d85656" stroke-width="2" stroke-dasharray="5,2" d="M1105.38,-180C1105.38,-180 984.38,-180 984.38,-180 978.38,-180 972.38,-174 972.38,-168 972.38,-168 972.38,-156 972.38,-156 972.38,-150 978.38,-144 984.38,-144 984.38,-144 1105.38,-144 1105.38,-144 1111.38,-144 1117.38,-150 1117.38,-156 1117.38,-156 1117.38,-168 1117.38,-168 1117.38,-174 1111.38,-180 1105.38,-180"/>
<text text-anchor="middle" x="1044.88" y="-163.75" font-family="sans" font-size="10.00">get_unclassified_read_names</text>
<text text-anchor="middle" x="1044.88" y="-152.5" font-family="sans" font-size="10.00">run_ID: ERR4812963</text>
</g>
<!-- 18&#45;&gt;17 -->
<g id="edge24" class="edge">
<title>18&#45;&gt;17</title>
<path fill="none" stroke="grey" stroke-width="2" d="M1038.06,-143.34C1035.43,-136.51 1032.34,-128.5 1029.38,-120.83"/>
<polygon fill="grey" stroke="grey" stroke-width="2" points="1032.73,-119.8 1025.87,-111.73 1026.2,-122.32 1032.73,-119.8"/>
</g>
</g>
</svg>
