<?xml version="1.0" encoding="UTF-8" standalone="no"?>
<!DOCTYPE svg PUBLIC "-//W3C//DTD SVG 1.1//EN"
 "http://www.w3.org/Graphics/SVG/1.1/DTD/svg11.dtd">
<!-- Generated by graphviz version 12.2.1 (0)
 -->
<!-- Title: snakemake_dag Pages: 1 -->
<svg width="483pt" height="188pt"
 viewBox="0.00 0.00 483.12 188.00" xmlns="http://www.w3.org/2000/svg" xmlns:xlink="http://www.w3.org/1999/xlink">
<g id="graph0" class="graph" transform="scale(1 1) rotate(0) translate(4 184)">
<title>snakemake_dag</title>
<polygon fill="white" stroke="none" points="-4,4 -4,-184 479.12,-184 479.12,4 -4,4"/>
<!-- 0 -->
<g id="node1" class="node">
<title>0</title>
<path fill="none" stroke="#afd856" stroke-width="2" stroke-dasharray="5,2" d="M237.88,-36C237.88,-36 207.88,-36 207.88,-36 201.88,-36 195.88,-30 195.88,-24 195.88,-24 195.88,-12 195.88,-12 195.88,-6 201.88,0 207.88,0 207.88,0 237.88,0 237.88,0 243.88,0 249.88,-6 249.88,-12 249.88,-12 249.88,-24 249.88,-24 249.88,-30 243.88,-36 237.88,-36"/>
<text text-anchor="middle" x="222.88" y="-14.12" font-family="sans" font-size="10.00">all</text>
</g>
<!-- 1 -->
<g id="node2" class="node">
<title>1</title>
<path fill="none" stroke="#56d8a9" stroke-width="2" stroke-dasharray="5,2" d="M97.75,-180C97.75,-180 12,-180 12,-180 6,-180 0,-174 0,-168 0,-168 0,-156 0,-156 0,-150 6,-144 12,-144 12,-144 97.75,-144 97.75,-144 103.75,-144 109.75,-150 109.75,-156 109.75,-156 109.75,-168 109.75,-168 109.75,-174 103.75,-180 97.75,-180"/>
<text text-anchor="middle" x="54.88" y="-163.75" font-family="sans" font-size="10.00">run_fastqc_and_fastp</text>
<text text-anchor="middle" x="54.88" y="-152.5" font-family="sans" font-size="10.00">run_ID: ERR4808980</text>
</g>
<!-- 1&#45;&gt;0 -->
<g id="edge1" class="edge">
<title>1&#45;&gt;0</title>
<path fill="none" stroke="grey" stroke-width="2" d="M45.26,-143.07C36.29,-123.63 26.43,-92.62 41.88,-72 58.7,-49.54 134.12,-33.4 182.14,-25.18"/>
<polygon fill="grey" stroke="grey" stroke-width="2" points="182.6,-28.65 191.9,-23.57 181.46,-21.75 182.6,-28.65"/>
</g>
<!-- 4 -->
<g id="node5" class="node">
<title>4</title>
<path fill="none" stroke="#d85656" stroke-width="2" stroke-dasharray="5,2" d="M143.12,-108C143.12,-108 62.62,-108 62.62,-108 56.62,-108 50.62,-102 50.62,-96 50.62,-96 50.62,-84 50.62,-84 50.62,-78 56.62,-72 62.62,-72 62.62,-72 143.12,-72 143.12,-72 149.12,-72 155.12,-78 155.12,-84 155.12,-84 155.12,-96 155.12,-96 155.12,-102 149.12,-108 143.12,-108"/>
<text text-anchor="middle" x="102.88" y="-86.12" font-family="sans" font-size="10.00">compute_read_stats</text>
</g>
<!-- 1&#45;&gt;4 -->
<g id="edge7" class="edge">
<title>1&#45;&gt;4</title>
<path fill="none" stroke="grey" stroke-width="2" d="M66.99,-143.34C71.95,-136.1 77.82,-127.53 83.37,-119.45"/>
<polygon fill="grey" stroke="grey" stroke-width="2" points="86.12,-121.62 88.89,-111.4 80.35,-117.67 86.12,-121.62"/>
</g>
<!-- 2 -->
<g id="node3" class="node">
<title>2</title>
<path fill="none" stroke="#56d8a9" stroke-width="2" stroke-dasharray="5,2" d="M241.75,-180C241.75,-180 156,-180 156,-180 150,-180 144,-174 144,-168 144,-168 144,-156 144,-156 144,-150 150,-144 156,-144 156,-144 241.75,-144 241.75,-144 247.75,-144 253.75,-150 253.75,-156 253.75,-156 253.75,-168 253.75,-168 253.75,-174 247.75,-180 241.75,-180"/>
<text text-anchor="middle" x="198.88" y="-163.75" font-family="sans" font-size="10.00">run_fastqc_and_fastp</text>
<text text-anchor="middle" x="198.88" y="-152.5" font-family="sans" font-size="10.00">run_ID: ERR4808985</text>
</g>
<!-- 2&#45;&gt;0 -->
<g id="edge2" class="edge">
<title>2&#45;&gt;0</title>
<path fill="none" stroke="grey" stroke-width="2" d="M197.7,-143.06C196.92,-124.93 196.83,-96.22 201.88,-72 203.5,-64.18 206.19,-56.02 209.11,-48.52"/>
<polygon fill="grey" stroke="grey" stroke-width="2" points="212.27,-50.04 212.92,-39.47 205.82,-47.33 212.27,-50.04"/>
</g>
<!-- 5 -->
<g id="node6" class="node">
<title>5</title>
<path fill="none" stroke="#d85656" stroke-width="2" stroke-dasharray="5,2" d="M303.12,-108C303.12,-108 222.62,-108 222.62,-108 216.62,-108 210.62,-102 210.62,-96 210.62,-96 210.62,-84 210.62,-84 210.62,-78 216.62,-72 222.62,-72 222.62,-72 303.12,-72 303.12,-72 309.12,-72 315.12,-78 315.12,-84 315.12,-84 315.12,-96 315.12,-96 315.12,-102 309.12,-108 303.12,-108"/>
<text text-anchor="middle" x="262.88" y="-86.12" font-family="sans" font-size="10.00">compute_read_stats</text>
</g>
<!-- 2&#45;&gt;5 -->
<g id="edge8" class="edge">
<title>2&#45;&gt;5</title>
<path fill="none" stroke="grey" stroke-width="2" d="M215.02,-143.34C221.94,-135.77 230.19,-126.75 237.87,-118.35"/>
<polygon fill="grey" stroke="grey" stroke-width="2" points="240.3,-120.88 244.47,-111.14 235.13,-116.15 240.3,-120.88"/>
</g>
<!-- 3 -->
<g id="node4" class="node">
<title>3</title>
<path fill="none" stroke="#56d8a9" stroke-width="2" stroke-dasharray="5,2" d="M425.75,-180C425.75,-180 340,-180 340,-180 334,-180 328,-174 328,-168 328,-168 328,-156 328,-156 328,-150 334,-144 340,-144 340,-144 425.75,-144 425.75,-144 431.75,-144 437.75,-150 437.75,-156 437.75,-156 437.75,-168 437.75,-168 437.75,-174 431.75,-180 425.75,-180"/>
<text text-anchor="middle" x="382.88" y="-163.75" font-family="sans" font-size="10.00">run_fastqc_and_fastp</text>
<text text-anchor="middle" x="382.88" y="-152.5" font-family="sans" font-size="10.00">run_ID: ERR4812963</text>
</g>
<!-- 3&#45;&gt;0 -->
<g id="edge3" class="edge">
<title>3&#45;&gt;0</title>
<path fill="none" stroke="grey" stroke-width="2" d="M374.42,-143.03C364.53,-123.54 346.58,-92.5 323.88,-72 305.98,-55.85 282.27,-43.07 262.31,-34.11"/>
<polygon fill="grey" stroke="grey" stroke-width="2" points="263.81,-30.95 253.24,-30.23 261.06,-37.38 263.81,-30.95"/>
</g>
<!-- 6 -->
<g id="node7" class="node">
<title>6</title>
<path fill="none" stroke="#d85656" stroke-width="2" stroke-dasharray="5,2" d="M463.12,-108C463.12,-108 382.62,-108 382.62,-108 376.62,-108 370.62,-102 370.62,-96 370.62,-96 370.62,-84 370.62,-84 370.62,-78 376.62,-72 382.62,-72 382.62,-72 463.12,-72 463.12,-72 469.12,-72 475.12,-78 475.12,-84 475.12,-84 475.12,-96 475.12,-96 475.12,-102 469.12,-108 463.12,-108"/>
<text text-anchor="middle" x="422.88" y="-86.12" font-family="sans" font-size="10.00">compute_read_stats</text>
</g>
<!-- 3&#45;&gt;6 -->
<g id="edge9" class="edge">
<title>3&#45;&gt;6</title>
<path fill="none" stroke="grey" stroke-width="2" d="M392.97,-143.34C397.01,-136.26 401.78,-127.92 406.3,-120"/>
<polygon fill="grey" stroke="grey" stroke-width="2" points="409.22,-121.95 411.14,-111.53 403.14,-118.48 409.22,-121.95"/>
</g>
<!-- 4&#45;&gt;0 -->
<g id="edge4" class="edge">
<title>4&#45;&gt;0</title>
<path fill="none" stroke="grey" stroke-width="2" d="M133.47,-71.15C148.93,-62.14 167.84,-51.1 184.29,-41.51"/>
<polygon fill="grey" stroke="grey" stroke-width="2" points="185.72,-44.72 192.6,-36.66 182.2,-38.68 185.72,-44.72"/>
</g>
<!-- 5&#45;&gt;0 -->
<g id="edge5" class="edge">
<title>5&#45;&gt;0</title>
<path fill="none" stroke="grey" stroke-width="2" d="M252.78,-71.34C248.74,-64.26 243.97,-55.92 239.45,-48"/>
<polygon fill="grey" stroke="grey" stroke-width="2" points="242.61,-46.48 234.61,-39.53 236.53,-49.95 242.61,-46.48"/>
</g>
<!-- 6&#45;&gt;0 -->
<g id="edge6" class="edge">
<title>6&#45;&gt;0</title>
<path fill="none" stroke="grey" stroke-width="2" d="M371.63,-71.06C337.86,-59.24 294.26,-43.99 263.01,-33.05"/>
<polygon fill="grey" stroke="grey" stroke-width="2" points="264.31,-29.79 253.71,-29.79 262,-36.4 264.31,-29.79"/>
</g>
</g>
</svg>
