<?xml version="1.0" encoding="UTF-8" standalone="no"?>
<!DOCTYPE svg PUBLIC "-//W3C//DTD SVG 1.1//EN"
 "http://www.w3.org/Graphics/SVG/1.1/DTD/svg11.dtd">
<!-- Generated by graphviz version 12.2.1 (0)
 -->
<!-- Title: snakemake_dag Pages: 1 -->
<svg width="1297pt" height="188pt"
 viewBox="0.00 0.00 1297.25 188.00" xmlns="http://www.w3.org/2000/svg" xmlns:xlink="http://www.w3.org/1999/xlink">
<g id="graph0" class="graph" transform="scale(1 1) rotate(0) translate(4 184)">
<title>snakemake_dag</title>
<polygon fill="white" stroke="none" points="-4,4 -4,-184 1293.25,-184 1293.25,4 -4,4"/>
<!-- 0 -->
<g id="node1" class="node">
<title>0</title>
<path fill="none" stroke="#59d856" stroke-width="2" stroke-dasharray="5,2" d="M604.88,-36C604.88,-36 574.88,-36 574.88,-36 568.88,-36 562.88,-30 562.88,-24 562.88,-24 562.88,-12 562.88,-12 562.88,-6 568.88,0 574.88,0 574.88,0 604.88,0 604.88,0 610.88,0 616.88,-6 616.88,-12 616.88,-12 616.88,-24 616.88,-24 616.88,-30 610.88,-36 604.88,-36"/>
<text text-anchor="middle" x="589.88" y="-14.12" font-family="sans" font-size="10.00">all</text>
</g>
<!-- 1 -->
<g id="node2" class="node">
<title>1</title>
<path fill="none" stroke="#d8ac56" stroke-width="2" stroke-dasharray="5,2" d="M97.75,-108C97.75,-108 12,-108 12,-108 6,-108 0,-102 0,-96 0,-96 0,-84 0,-84 0,-78 6,-72 12,-72 12,-72 97.75,-72 97.75,-72 103.75,-72 109.75,-78 109.75,-84 109.75,-84 109.75,-96 109.75,-96 109.75,-102 103.75,-108 97.75,-108"/>
<text text-anchor="middle" x="54.88" y="-91.75" font-family="sans" font-size="10.00">run_fastqc</text>
<text text-anchor="middle" x="54.88" y="-80.5" font-family="sans" font-size="10.00">run_ID: ERR4808980</text>
</g>
<!-- 1&#45;&gt;0 -->
<g id="edge1" class="edge">
<title>1&#45;&gt;0</title>
<path fill="none" stroke="grey" stroke-width="2" d="M110.61,-73.68C113.4,-73.07 116.16,-72.51 118.88,-72 276.52,-42.36 467.18,-27.13 549.17,-21.55"/>
<polygon fill="grey" stroke="grey" stroke-width="2" points="549.29,-25.05 559.04,-20.89 548.83,-18.06 549.29,-25.05"/>
</g>
<!-- 2 -->
<g id="node3" class="node">
<title>2</title>
<path fill="none" stroke="#d8ac56" stroke-width="2" stroke-dasharray="5,2" d="M225.75,-108C225.75,-108 140,-108 140,-108 134,-108 128,-102 128,-96 128,-96 128,-84 128,-84 128,-78 134,-72 140,-72 140,-72 225.75,-72 225.75,-72 231.75,-72 237.75,-78 237.75,-84 237.75,-84 237.75,-96 237.75,-96 237.75,-102 231.75,-108 225.75,-108"/>
<text text-anchor="middle" x="182.88" y="-91.75" font-family="sans" font-size="10.00">run_fastqc</text>
<text text-anchor="middle" x="182.88" y="-80.5" font-family="sans" font-size="10.00">run_ID: ERR4808985</text>
</g>
<!-- 2&#45;&gt;0 -->
<g id="edge2" class="edge">
<title>2&#45;&gt;0</title>
<path fill="none" stroke="grey" stroke-width="2" d="M238.64,-73.81C241.42,-73.17 244.17,-72.57 246.88,-72 355.34,-49.28 484.99,-31.85 549.41,-23.84"/>
<polygon fill="grey" stroke="grey" stroke-width="2" points="549.63,-27.34 559.13,-22.64 548.77,-20.39 549.63,-27.34"/>
</g>
<!-- 3 -->
<g id="node4" class="node">
<title>3</title>
<path fill="none" stroke="#d8ac56" stroke-width="2" stroke-dasharray="5,2" d="M353.75,-108C353.75,-108 268,-108 268,-108 262,-108 256,-102 256,-96 256,-96 256,-84 256,-84 256,-78 262,-72 268,-72 268,-72 353.75,-72 353.75,-72 359.75,-72 365.75,-78 365.75,-84 365.75,-84 365.75,-96 365.75,-96 365.75,-102 359.75,-108 353.75,-108"/>
<text text-anchor="middle" x="310.88" y="-91.75" font-family="sans" font-size="10.00">run_fastqc</text>
<text text-anchor="middle" x="310.88" y="-80.5" font-family="sans" font-size="10.00">run_ID: ERR4812963</text>
</g>
<!-- 3&#45;&gt;0 -->
<g id="edge3" class="edge">
<title>3&#45;&gt;0</title>
<path fill="none" stroke="grey" stroke-width="2" d="M366.71,-74.11C369.47,-73.39 372.2,-72.68 374.88,-72 435.63,-56.44 506.25,-39.19 549.5,-28.72"/>
<polygon fill="grey" stroke="grey" stroke-width="2" points="550.16,-32.16 559.06,-26.41 548.52,-25.36 550.16,-32.16"/>
</g>
<!-- 4 -->
<g id="node5" class="node">
<title>4</title>
<path fill="none" stroke="#56d8a9" stroke-width="2" stroke-dasharray="5,2" d="M476.12,-108C476.12,-108 395.62,-108 395.62,-108 389.62,-108 383.62,-102 383.62,-96 383.62,-96 383.62,-84 383.62,-84 383.62,-78 389.62,-72 395.62,-72 395.62,-72 476.12,-72 476.12,-72 482.12,-72 488.12,-78 488.12,-84 488.12,-84 488.12,-96 488.12,-96 488.12,-102 482.12,-108 476.12,-108"/>
<text text-anchor="middle" x="435.88" y="-86.12" font-family="sans" font-size="10.00">compute_read_stats</text>
</g>
<!-- 4&#45;&gt;0 -->
<g id="edge4" class="edge">
<title>4&#45;&gt;0</title>
<path fill="none" stroke="grey" stroke-width="2" d="M475.13,-71.15C498.25,-60.65 527.39,-47.4 550.52,-36.89"/>
<polygon fill="grey" stroke="grey" stroke-width="2" points="551.93,-40.09 559.59,-32.77 549.03,-33.72 551.93,-40.09"/>
</g>
<!-- 5 -->
<g id="node6" class="node">
<title>5</title>
<path fill="none" stroke="#afd856" stroke-width="2" stroke-dasharray="5,2" d="M484.88,-180C484.88,-180 390.88,-180 390.88,-180 384.88,-180 378.88,-174 378.88,-168 378.88,-168 378.88,-156 378.88,-156 378.88,-150 384.88,-144 390.88,-144 390.88,-144 484.88,-144 484.88,-144 490.88,-144 496.88,-150 496.88,-156 496.88,-156 496.88,-168 496.88,-168 496.88,-174 490.88,-180 484.88,-180"/>
<text text-anchor="middle" x="437.88" y="-163.75" font-family="sans" font-size="10.00">fastp_adapter_trimming</text>
<text text-anchor="middle" x="437.88" y="-152.5" font-family="sans" font-size="10.00">run_ID: ERR4808980</text>
</g>
<!-- 5&#45;&gt;4 -->
<g id="edge10" class="edge">
<title>5&#45;&gt;4</title>
<path fill="none" stroke="grey" stroke-width="2" d="M437.37,-143.34C437.18,-136.75 436.96,-129.08 436.75,-121.67"/>
<polygon fill="grey" stroke="grey" stroke-width="2" points="440.26,-121.82 436.47,-111.93 433.26,-122.02 440.26,-121.82"/>
</g>
<!-- 10 -->
<g id="node11" class="node">
<title>10</title>
<path fill="none" stroke="#56a9d8" stroke-width="2" stroke-dasharray="5,2" d="M661.25,-108C661.25,-108 518.5,-108 518.5,-108 512.5,-108 506.5,-102 506.5,-96 506.5,-96 506.5,-84 506.5,-84 506.5,-78 512.5,-72 518.5,-72 518.5,-72 661.25,-72 661.25,-72 667.25,-72 673.25,-78 673.25,-84 673.25,-84 673.25,-96 673.25,-96 673.25,-102 667.25,-108 661.25,-108"/>
<text text-anchor="middle" x="589.88" y="-86.12" font-family="sans" font-size="10.00">extract_unclassified_kraken_reads</text>
</g>
<!-- 5&#45;&gt;10 -->
<g id="edge13" class="edge">
<title>5&#45;&gt;10</title>
<path fill="none" stroke="grey" stroke-width="2" d="M476.62,-143.15C495.67,-134.38 518.86,-123.71 539.28,-114.3"/>
<polygon fill="grey" stroke="grey" stroke-width="2" points="540.56,-117.56 548.18,-110.2 537.64,-111.2 540.56,-117.56"/>
</g>
<!-- 6 -->
<g id="node7" class="node">
<title>6</title>
<path fill="none" stroke="#56d8a9" stroke-width="2" stroke-dasharray="5,2" d="M784.12,-108C784.12,-108 703.62,-108 703.62,-108 697.62,-108 691.62,-102 691.62,-96 691.62,-96 691.62,-84 691.62,-84 691.62,-78 697.62,-72 703.62,-72 703.62,-72 784.12,-72 784.12,-72 790.12,-72 796.12,-78 796.12,-84 796.12,-84 796.12,-96 796.12,-96 796.12,-102 790.12,-108 784.12,-108"/>
<text text-anchor="middle" x="743.88" y="-86.12" font-family="sans" font-size="10.00">compute_read_stats</text>
</g>
<!-- 6&#45;&gt;0 -->
<g id="edge5" class="edge">
<title>6&#45;&gt;0</title>
<path fill="none" stroke="grey" stroke-width="2" d="M704.62,-71.15C681.5,-60.65 652.36,-47.4 629.23,-36.89"/>
<polygon fill="grey" stroke="grey" stroke-width="2" points="630.72,-33.72 620.16,-32.77 627.82,-40.09 630.72,-33.72"/>
</g>
<!-- 7 -->
<g id="node8" class="node">
<title>7</title>
<path fill="none" stroke="#afd856" stroke-width="2" stroke-dasharray="5,2" d="M792.88,-180C792.88,-180 698.88,-180 698.88,-180 692.88,-180 686.88,-174 686.88,-168 686.88,-168 686.88,-156 686.88,-156 686.88,-150 692.88,-144 698.88,-144 698.88,-144 792.88,-144 792.88,-144 798.88,-144 804.88,-150 804.88,-156 804.88,-156 804.88,-168 804.88,-168 804.88,-174 798.88,-180 792.88,-180"/>
<text text-anchor="middle" x="745.88" y="-163.75" font-family="sans" font-size="10.00">fastp_adapter_trimming</text>
<text text-anchor="middle" x="745.88" y="-152.5" font-family="sans" font-size="10.00">run_ID: ERR4808985</text>
</g>
<!-- 7&#45;&gt;6 -->
<g id="edge11" class="edge">
<title>7&#45;&gt;6</title>
<path fill="none" stroke="grey" stroke-width="2" d="M745.37,-143.34C745.18,-136.75 744.96,-129.08 744.75,-121.67"/>
<polygon fill="grey" stroke="grey" stroke-width="2" points="748.26,-121.82 744.47,-111.93 741.26,-122.02 748.26,-121.82"/>
</g>
<!-- 12 -->
<g id="node13" class="node">
<title>12</title>
<path fill="none" stroke="#56a9d8" stroke-width="2" stroke-dasharray="5,2" d="M969.25,-108C969.25,-108 826.5,-108 826.5,-108 820.5,-108 814.5,-102 814.5,-96 814.5,-96 814.5,-84 814.5,-84 814.5,-78 820.5,-72 826.5,-72 826.5,-72 969.25,-72 969.25,-72 975.25,-72 981.25,-78 981.25,-84 981.25,-84 981.25,-96 981.25,-96 981.25,-102 975.25,-108 969.25,-108"/>
<text text-anchor="middle" x="897.88" y="-86.12" font-family="sans" font-size="10.00">extract_unclassified_kraken_reads</text>
</g>
<!-- 7&#45;&gt;12 -->
<g id="edge15" class="edge">
<title>7&#45;&gt;12</title>
<path fill="none" stroke="grey" stroke-width="2" d="M784.62,-143.15C803.67,-134.38 826.86,-123.71 847.28,-114.3"/>
<polygon fill="grey" stroke="grey" stroke-width="2" points="848.56,-117.56 856.18,-110.2 845.64,-111.2 848.56,-117.56"/>
</g>
<!-- 8 -->
<g id="node9" class="node">
<title>8</title>
<path fill="none" stroke="#56d8a9" stroke-width="2" stroke-dasharray="5,2" d="M1092.12,-108C1092.12,-108 1011.62,-108 1011.62,-108 1005.62,-108 999.62,-102 999.62,-96 999.62,-96 999.62,-84 999.62,-84 999.62,-78 1005.62,-72 1011.62,-72 1011.62,-72 1092.12,-72 1092.12,-72 1098.12,-72 1104.12,-78 1104.12,-84 1104.12,-84 1104.12,-96 1104.12,-96 1104.12,-102 1098.12,-108 1092.12,-108"/>
<text text-anchor="middle" x="1051.88" y="-86.12" font-family="sans" font-size="10.00">compute_read_stats</text>
</g>
<!-- 8&#45;&gt;0 -->
<g id="edge6" class="edge">
<title>8&#45;&gt;0</title>
<path fill="none" stroke="grey" stroke-width="2" d="M998.89,-73.96C995.85,-73.26 992.83,-72.6 989.88,-72 859.63,-45.64 702.78,-29.25 630.27,-22.52"/>
<polygon fill="grey" stroke="grey" stroke-width="2" points="631.02,-19.07 620.75,-21.65 630.39,-26.05 631.02,-19.07"/>
</g>
<!-- 9 -->
<g id="node10" class="node">
<title>9</title>
<path fill="none" stroke="#afd856" stroke-width="2" stroke-dasharray="5,2" d="M1100.88,-180C1100.88,-180 1006.88,-180 1006.88,-180 1000.88,-180 994.88,-174 994.88,-168 994.88,-168 994.88,-156 994.88,-156 994.88,-150 1000.88,-144 1006.88,-144 1006.88,-144 1100.88,-144 1100.88,-144 1106.88,-144 1112.88,-150 1112.88,-156 1112.88,-156 1112.88,-168 1112.88,-168 1112.88,-174 1106.88,-180 1100.88,-180"/>
<text text-anchor="middle" x="1053.88" y="-163.75" font-family="sans" font-size="10.00">fastp_adapter_trimming</text>
<text text-anchor="middle" x="1053.88" y="-152.5" font-family="sans" font-size="10.00">run_ID: ERR4812963</text>
</g>
<!-- 9&#45;&gt;8 -->
<g id="edge12" class="edge">
<title>9&#45;&gt;8</title>
<path fill="none" stroke="grey" stroke-width="2" d="M1053.37,-143.34C1053.18,-136.75 1052.96,-129.08 1052.75,-121.67"/>
<polygon fill="grey" stroke="grey" stroke-width="2" points="1056.26,-121.82 1052.47,-111.93 1049.26,-122.02 1056.26,-121.82"/>
</g>
<!-- 14 -->
<g id="node15" class="node">
<title>14</title>
<path fill="none" stroke="#56a9d8" stroke-width="2" stroke-dasharray="5,2" d="M1277.25,-108C1277.25,-108 1134.5,-108 1134.5,-108 1128.5,-108 1122.5,-102 1122.5,-96 1122.5,-96 1122.5,-84 1122.5,-84 1122.5,-78 1128.5,-72 1134.5,-72 1134.5,-72 1277.25,-72 1277.25,-72 1283.25,-72 1289.25,-78 1289.25,-84 1289.25,-84 1289.25,-96 1289.25,-96 1289.25,-102 1283.25,-108 1277.25,-108"/>
<text text-anchor="middle" x="1205.88" y="-86.12" font-family="sans" font-size="10.00">extract_unclassified_kraken_reads</text>
</g>
<!-- 9&#45;&gt;14 -->
<g id="edge17" class="edge">
<title>9&#45;&gt;14</title>
<path fill="none" stroke="grey" stroke-width="2" d="M1092.62,-143.15C1111.67,-134.38 1134.86,-123.71 1155.28,-114.3"/>
<polygon fill="grey" stroke="grey" stroke-width="2" points="1156.56,-117.56 1164.18,-110.2 1153.64,-111.2 1156.56,-117.56"/>
</g>
<!-- 10&#45;&gt;0 -->
<g id="edge7" class="edge">
<title>10&#45;&gt;0</title>
<path fill="none" stroke="grey" stroke-width="2" d="M589.88,-71.34C589.88,-64.75 589.88,-57.08 589.88,-49.67"/>
<polygon fill="grey" stroke="grey" stroke-width="2" points="593.38,-49.93 589.88,-39.93 586.38,-49.93 593.38,-49.93"/>
</g>
<!-- 11 -->
<g id="node12" class="node">
<title>11</title>
<path fill="none" stroke="#d85656" stroke-width="2" stroke-dasharray="5,2" d="M650.38,-180C650.38,-180 529.38,-180 529.38,-180 523.38,-180 517.38,-174 517.38,-168 517.38,-168 517.38,-156 517.38,-156 517.38,-150 523.38,-144 529.38,-144 529.38,-144 650.38,-144 650.38,-144 656.38,-144 662.38,-150 662.38,-156 662.38,-156 662.38,-168 662.38,-168 662.38,-174 656.38,-180 650.38,-180"/>
<text text-anchor="middle" x="589.88" y="-163.75" font-family="sans" font-size="10.00">get_unclassified_read_names</text>
<text text-anchor="middle" x="589.88" y="-152.5" font-family="sans" font-size="10.00">run_ID: ERR4808980</text>
</g>
<!-- 11&#45;&gt;10 -->
<g id="edge14" class="edge">
<title>11&#45;&gt;10</title>
<path fill="none" stroke="grey" stroke-width="2" d="M589.88,-143.34C589.88,-136.75 589.88,-129.08 589.88,-121.67"/>
<polygon fill="grey" stroke="grey" stroke-width="2" points="593.38,-121.93 589.88,-111.93 586.38,-121.93 593.38,-121.93"/>
</g>
<!-- 12&#45;&gt;0 -->
<g id="edge8" class="edge">
<title>12&#45;&gt;0</title>
<path fill="none" stroke="grey" stroke-width="2" d="M818.96,-71.06C758.68,-57.36 678.08,-39.05 630.31,-28.19"/>
<polygon fill="grey" stroke="grey" stroke-width="2" points="631.22,-24.81 620.7,-26.01 629.67,-31.63 631.22,-24.81"/>
</g>
<!-- 13 -->
<g id="node14" class="node">
<title>13</title>
<path fill="none" stroke="#d85656" stroke-width="2" stroke-dasharray="5,2" d="M958.38,-180C958.38,-180 837.38,-180 837.38,-180 831.38,-180 825.38,-174 825.38,-168 825.38,-168 825.38,-156 825.38,-156 825.38,-150 831.38,-144 837.38,-144 837.38,-144 958.38,-144 958.38,-144 964.38,-144 970.38,-150 970.38,-156 970.38,-156 970.38,-168 970.38,-168 970.38,-174 964.38,-180 958.38,-180"/>
<text text-anchor="middle" x="897.88" y="-163.75" font-family="sans" font-size="10.00">get_unclassified_read_names</text>
<text text-anchor="middle" x="897.88" y="-152.5" font-family="sans" font-size="10.00">run_ID: ERR4808985</text>
</g>
<!-- 13&#45;&gt;12 -->
<g id="edge16" class="edge">
<title>13&#45;&gt;12</title>
<path fill="none" stroke="grey" stroke-width="2" d="M897.88,-143.34C897.88,-136.75 897.88,-129.08 897.88,-121.67"/>
<polygon fill="grey" stroke="grey" stroke-width="2" points="901.38,-121.93 897.88,-111.93 894.38,-121.93 901.38,-121.93"/>
</g>
<!-- 14&#45;&gt;0 -->
<g id="edge9" class="edge">
<title>14&#45;&gt;0</title>
<path fill="none" stroke="grey" stroke-width="2" d="M1121.77,-73.32C1118.77,-72.86 1115.8,-72.41 1112.88,-72 933.86,-46.61 718.69,-28.78 630.54,-22.01"/>
<polygon fill="grey" stroke="grey" stroke-width="2" points="631.01,-18.53 620.77,-21.27 630.48,-25.51 631.01,-18.53"/>
</g>
<!-- 15 -->
<g id="node16" class="node">
<title>15</title>
<path fill="none" stroke="#d85656" stroke-width="2" stroke-dasharray="5,2" d="M1266.38,-180C1266.38,-180 1145.38,-180 1145.38,-180 1139.38,-180 1133.38,-174 1133.38,-168 1133.38,-168 1133.38,-156 1133.38,-156 1133.38,-150 1139.38,-144 1145.38,-144 1145.38,-144 1266.38,-144 1266.38,-144 1272.38,-144 1278.38,-150 1278.38,-156 1278.38,-156 1278.38,-168 1278.38,-168 1278.38,-174 1272.38,-180 1266.38,-180"/>
<text text-anchor="middle" x="1205.88" y="-163.75" font-family="sans" font-size="10.00">get_unclassified_read_names</text>
<text text-anchor="middle" x="1205.88" y="-152.5" font-family="sans" font-size="10.00">run_ID: ERR4812963</text>
</g>
<!-- 15&#45;&gt;14 -->
<g id="edge18" class="edge">
<title>15&#45;&gt;14</title>
<path fill="none" stroke="grey" stroke-width="2" d="M1205.88,-143.34C1205.88,-136.75 1205.88,-129.08 1205.88,-121.67"/>
<polygon fill="grey" stroke="grey" stroke-width="2" points="1209.38,-121.93 1205.88,-111.93 1202.38,-121.93 1209.38,-121.93"/>
</g>
</g>
</svg>
