<?xml version="1.0" encoding="UTF-8" standalone="no"?>
<!DOCTYPE svg PUBLIC "-//W3C//DTD SVG 1.1//EN"
 "http://www.w3.org/Graphics/SVG/1.1/DTD/svg11.dtd">
<!-- Generated by graphviz version 12.2.1 (0)
 -->
<!-- Title: snakemake_dag Pages: 1 -->
<svg width="762pt" height="188pt"
 viewBox="0.00 0.00 761.88 188.00" xmlns="http://www.w3.org/2000/svg" xmlns:xlink="http://www.w3.org/1999/xlink">
<g id="graph0" class="graph" transform="scale(1 1) rotate(0) translate(4 184)">
<title>snakemake_dag</title>
<polygon fill="white" stroke="none" points="-4,4 -4,-184 757.88,-184 757.88,4 -4,4"/>
<!-- 0 -->
<g id="node1" class="node">
<title>0</title>
<path fill="none" stroke="#59d856" stroke-width="2" stroke-dasharray="5,2" d="M387.88,-36C387.88,-36 357.88,-36 357.88,-36 351.88,-36 345.88,-30 345.88,-24 345.88,-24 345.88,-12 345.88,-12 345.88,-6 351.88,0 357.88,0 357.88,0 387.88,0 387.88,0 393.88,0 399.88,-6 399.88,-12 399.88,-12 399.88,-24 399.88,-24 399.88,-30 393.88,-36 387.88,-36"/>
<text text-anchor="middle" x="372.88" y="-14.12" font-family="sans" font-size="10.00">all</text>
</g>
<!-- 1 -->
<g id="node2" class="node">
<title>1</title>
<path fill="none" stroke="#d8ac56" stroke-width="2" stroke-dasharray="5,2" d="M97.75,-108C97.75,-108 12,-108 12,-108 6,-108 0,-102 0,-96 0,-96 0,-84 0,-84 0,-78 6,-72 12,-72 12,-72 97.75,-72 97.75,-72 103.75,-72 109.75,-78 109.75,-84 109.75,-84 109.75,-96 109.75,-96 109.75,-102 103.75,-108 97.75,-108"/>
<text text-anchor="middle" x="54.88" y="-91.75" font-family="sans" font-size="10.00">run_fastqc</text>
<text text-anchor="middle" x="54.88" y="-80.5" font-family="sans" font-size="10.00">run_ID: ERR4808980</text>
</g>
<!-- 1&#45;&gt;0 -->
<g id="edge1" class="edge">
<title>1&#45;&gt;0</title>
<path fill="none" stroke="grey" stroke-width="2" d="M110.68,-73.99C113.45,-73.3 116.19,-72.64 118.88,-72 193.92,-54.22 282.19,-36.52 332.43,-26.74"/>
<polygon fill="grey" stroke="grey" stroke-width="2" points="332.83,-30.23 341.98,-24.89 331.5,-23.36 332.83,-30.23"/>
</g>
<!-- 2 -->
<g id="node3" class="node">
<title>2</title>
<path fill="none" stroke="#d8ac56" stroke-width="2" stroke-dasharray="5,2" d="M225.75,-108C225.75,-108 140,-108 140,-108 134,-108 128,-102 128,-96 128,-96 128,-84 128,-84 128,-78 134,-72 140,-72 140,-72 225.75,-72 225.75,-72 231.75,-72 237.75,-78 237.75,-84 237.75,-84 237.75,-96 237.75,-96 237.75,-102 231.75,-108 225.75,-108"/>
<text text-anchor="middle" x="182.88" y="-91.75" font-family="sans" font-size="10.00">run_fastqc</text>
<text text-anchor="middle" x="182.88" y="-80.5" font-family="sans" font-size="10.00">run_ID: ERR4808985</text>
</g>
<!-- 2&#45;&gt;0 -->
<g id="edge2" class="edge">
<title>2&#45;&gt;0</title>
<path fill="none" stroke="grey" stroke-width="2" d="M231.31,-71.15C262.87,-59.53 303.53,-44.55 333.17,-33.63"/>
<polygon fill="grey" stroke="grey" stroke-width="2" points="334.13,-37.01 342.3,-30.26 331.71,-30.44 334.13,-37.01"/>
</g>
<!-- 3 -->
<g id="node4" class="node">
<title>3</title>
<path fill="none" stroke="#d8ac56" stroke-width="2" stroke-dasharray="5,2" d="M353.75,-108C353.75,-108 268,-108 268,-108 262,-108 256,-102 256,-96 256,-96 256,-84 256,-84 256,-78 262,-72 268,-72 268,-72 353.75,-72 353.75,-72 359.75,-72 365.75,-78 365.75,-84 365.75,-84 365.75,-96 365.75,-96 365.75,-102 359.75,-108 353.75,-108"/>
<text text-anchor="middle" x="310.88" y="-91.75" font-family="sans" font-size="10.00">run_fastqc</text>
<text text-anchor="middle" x="310.88" y="-80.5" font-family="sans" font-size="10.00">run_ID: ERR4812963</text>
</g>
<!-- 3&#45;&gt;0 -->
<g id="edge3" class="edge">
<title>3&#45;&gt;0</title>
<path fill="none" stroke="grey" stroke-width="2" d="M326.52,-71.34C333.15,-63.85 341.04,-54.95 348.41,-46.63"/>
<polygon fill="grey" stroke="grey" stroke-width="2" points="351,-48.97 355.01,-39.17 345.76,-44.33 351,-48.97"/>
</g>
<!-- 4 -->
<g id="node5" class="node">
<title>4</title>
<path fill="none" stroke="#d85656" stroke-width="2" stroke-dasharray="5,2" d="M476.12,-108C476.12,-108 395.62,-108 395.62,-108 389.62,-108 383.62,-102 383.62,-96 383.62,-96 383.62,-84 383.62,-84 383.62,-78 389.62,-72 395.62,-72 395.62,-72 476.12,-72 476.12,-72 482.12,-72 488.12,-78 488.12,-84 488.12,-84 488.12,-96 488.12,-96 488.12,-102 482.12,-108 476.12,-108"/>
<text text-anchor="middle" x="435.88" y="-86.12" font-family="sans" font-size="10.00">compute_read_stats</text>
</g>
<!-- 4&#45;&gt;0 -->
<g id="edge4" class="edge">
<title>4&#45;&gt;0</title>
<path fill="none" stroke="grey" stroke-width="2" d="M419.98,-71.34C413.17,-63.77 405.05,-54.75 397.49,-46.35"/>
<polygon fill="grey" stroke="grey" stroke-width="2" points="400.3,-44.24 391.01,-39.15 395.1,-48.93 400.3,-44.24"/>
</g>
<!-- 5 -->
<g id="node6" class="node">
<title>5</title>
<path fill="none" stroke="#afd856" stroke-width="2" stroke-dasharray="5,2" d="M469.88,-180C469.88,-180 375.88,-180 375.88,-180 369.88,-180 363.88,-174 363.88,-168 363.88,-168 363.88,-156 363.88,-156 363.88,-150 369.88,-144 375.88,-144 375.88,-144 469.88,-144 469.88,-144 475.88,-144 481.88,-150 481.88,-156 481.88,-156 481.88,-168 481.88,-168 481.88,-174 475.88,-180 469.88,-180"/>
<text text-anchor="middle" x="422.88" y="-163.75" font-family="sans" font-size="10.00">fastp_adapter_trimming</text>
<text text-anchor="middle" x="422.88" y="-152.5" font-family="sans" font-size="10.00">run_ID: ERR4808980</text>
</g>
<!-- 5&#45;&gt;4 -->
<g id="edge7" class="edge">
<title>5&#45;&gt;4</title>
<path fill="none" stroke="grey" stroke-width="2" d="M426.16,-143.34C427.38,-136.75 428.8,-129.08 430.18,-121.67"/>
<polygon fill="grey" stroke="grey" stroke-width="2" points="433.61,-122.35 432,-111.88 426.73,-121.07 433.61,-122.35"/>
</g>
<!-- 6 -->
<g id="node7" class="node">
<title>6</title>
<path fill="none" stroke="#d85656" stroke-width="2" stroke-dasharray="5,2" d="M599.12,-108C599.12,-108 518.62,-108 518.62,-108 512.62,-108 506.62,-102 506.62,-96 506.62,-96 506.62,-84 506.62,-84 506.62,-78 512.62,-72 518.62,-72 518.62,-72 599.12,-72 599.12,-72 605.12,-72 611.12,-78 611.12,-84 611.12,-84 611.12,-96 611.12,-96 611.12,-102 605.12,-108 599.12,-108"/>
<text text-anchor="middle" x="558.88" y="-86.12" font-family="sans" font-size="10.00">compute_read_stats</text>
</g>
<!-- 6&#45;&gt;0 -->
<g id="edge5" class="edge">
<title>6&#45;&gt;0</title>
<path fill="none" stroke="grey" stroke-width="2" d="M511.46,-71.15C480.99,-59.69 441.84,-44.96 412.93,-34.08"/>
<polygon fill="grey" stroke="grey" stroke-width="2" points="414.26,-30.83 403.67,-30.59 411.79,-37.39 414.26,-30.83"/>
</g>
<!-- 7 -->
<g id="node8" class="node">
<title>7</title>
<path fill="none" stroke="#afd856" stroke-width="2" stroke-dasharray="5,2" d="M605.88,-180C605.88,-180 511.88,-180 511.88,-180 505.88,-180 499.88,-174 499.88,-168 499.88,-168 499.88,-156 499.88,-156 499.88,-150 505.88,-144 511.88,-144 511.88,-144 605.88,-144 605.88,-144 611.88,-144 617.88,-150 617.88,-156 617.88,-156 617.88,-168 617.88,-168 617.88,-174 611.88,-180 605.88,-180"/>
<text text-anchor="middle" x="558.88" y="-163.75" font-family="sans" font-size="10.00">fastp_adapter_trimming</text>
<text text-anchor="middle" x="558.88" y="-152.5" font-family="sans" font-size="10.00">run_ID: ERR4808985</text>
</g>
<!-- 7&#45;&gt;6 -->
<g id="edge8" class="edge">
<title>7&#45;&gt;6</title>
<path fill="none" stroke="grey" stroke-width="2" d="M558.88,-143.34C558.88,-136.75 558.88,-129.08 558.88,-121.67"/>
<polygon fill="grey" stroke="grey" stroke-width="2" points="562.38,-121.93 558.88,-111.93 555.38,-121.93 562.38,-121.93"/>
</g>
<!-- 8 -->
<g id="node9" class="node">
<title>8</title>
<path fill="none" stroke="#d85656" stroke-width="2" stroke-dasharray="5,2" d="M729.12,-108C729.12,-108 648.62,-108 648.62,-108 642.62,-108 636.62,-102 636.62,-96 636.62,-96 636.62,-84 636.62,-84 636.62,-78 642.62,-72 648.62,-72 648.62,-72 729.12,-72 729.12,-72 735.12,-72 741.12,-78 741.12,-84 741.12,-84 741.12,-96 741.12,-96 741.12,-102 735.12,-108 729.12,-108"/>
<text text-anchor="middle" x="688.88" y="-86.12" font-family="sans" font-size="10.00">compute_read_stats</text>
</g>
<!-- 8&#45;&gt;0 -->
<g id="edge6" class="edge">
<title>8&#45;&gt;0</title>
<path fill="none" stroke="grey" stroke-width="2" d="M635.8,-75.75C630.42,-74.46 625.04,-73.19 619.88,-72 547.25,-55.27 462.22,-37.4 413.24,-27.27"/>
<polygon fill="grey" stroke="grey" stroke-width="2" points="414.18,-23.89 403.68,-25.3 412.77,-30.75 414.18,-23.89"/>
</g>
<!-- 9 -->
<g id="node10" class="node">
<title>9</title>
<path fill="none" stroke="#afd856" stroke-width="2" stroke-dasharray="5,2" d="M741.88,-180C741.88,-180 647.88,-180 647.88,-180 641.88,-180 635.88,-174 635.88,-168 635.88,-168 635.88,-156 635.88,-156 635.88,-150 641.88,-144 647.88,-144 647.88,-144 741.88,-144 741.88,-144 747.88,-144 753.88,-150 753.88,-156 753.88,-156 753.88,-168 753.88,-168 753.88,-174 747.88,-180 741.88,-180"/>
<text text-anchor="middle" x="694.88" y="-163.75" font-family="sans" font-size="10.00">fastp_adapter_trimming</text>
<text text-anchor="middle" x="694.88" y="-152.5" font-family="sans" font-size="10.00">run_ID: ERR4812963</text>
</g>
<!-- 9&#45;&gt;8 -->
<g id="edge9" class="edge">
<title>9&#45;&gt;8</title>
<path fill="none" stroke="grey" stroke-width="2" d="M693.36,-143.34C692.8,-136.75 692.14,-129.08 691.5,-121.67"/>
<polygon fill="grey" stroke="grey" stroke-width="2" points="695.01,-121.58 690.67,-111.92 688.03,-122.18 695.01,-121.58"/>
</g>
</g>
</svg>
